<?xml version="1.0" encoding="UTF-8" standalone="no"?>
<!DOCTYPE svg PUBLIC "-//W3C//DTD SVG 20010904//EN" "http://www.w3.org/TR/2001/REC-SVG-20010904/DTD/svg10.dtd">
<svg version="1.0" xmlns="http://www.w3.org/2000/svg" width="200.000000pt" height="146.000000pt" viewBox="0 0 200.000000 146.000000" preserveAspectRatio="xMidYMid meet">
<metadata>
Created by potrace 1.10, written by Peter Selinger 2001-2011
</metadata>
<g transform="translate(0.000000,146.000000) scale(0.100000,-0.100000)" fill="#000000" stroke="none">
<path d="M673 1453 c9 -2 25 -2 35 0 9 3 1 5 -18 5 -19 0 -27 -2 -17 -5z"/>
<path d="M1468 1453 c28 -2 76 -2 105 0 28 2 5 3 -53 3 -58 0 -81 -1 -52 -3z"/>
<path d="M1658 1453 c12 -2 30 -2 40 0 9 3 -1 5 -23 4 -22 0 -30 -2 -17 -4z"/>
<path d="M1738 1453 c7 -3 16 -2 19 1 4 3 -2 6 -13 5 -11 0 -14 -3 -6 -6z"/>
<path d="M1838 1453 c7 -3 16 -2 19 1 4 3 -2 6 -13 5 -11 0 -14 -3 -6 -6z"/>
<path d="M1888 1453 c12 -2 32 -2 45 0 12 2 2 4 -23 4 -25 0 -35 -2 -22 -4z"/>
<path d="M117 1443 c-4 -3 -32 -5 -62 -4 -34 1 -55 -2 -55 -9 0 -6 14 -9 35 -7 20 3 43 -2 52 -9 21 -16 37 -18 28 -4 -3 6 -1 10 5 10 6 0 9 4 6 9 -4 5 0 12 6 14 7 3 8 6 2 6 -6 1 -14 -2 -17 -6z"/>
<path d="M897 1435 c-15 -8 -25 -11 -23 -6 3 4 -9 8 -27 8 -18 0 -26 -2 -19 -4 6 -3 12 -9 12 -15 0 -6 -11 -3 -25 6 -13 9 -36 15 -50 14 -30 -3 -34 -18 -5 -18 11 0 28 -9 37 -19 13 -16 18 -17 30 -6 7 8 26 12 43 10 19 -3 29 0 27 7 -1 7 7 14 18 16 11 2 17 1 13 -3 -4 -4 3 -15 15 -25 22 -18 22 -18 -12 -14 -18 2 -47 -2 -65 -10 -47 -21 -59 -24 -81 -16 -17 7 -20 3 -20 -20 -1 -19 3 -26 12 -23 7 3 13 10 13 15 0 5 6 8 13 5 6 -2 35 7 64 19 29 13 55 19 58 14 7 -11 43 1 46 15 3 17 38 37 51 29 7 -4 8 -3 4 4 -4 7 -3 12 3 12 5 0 13 -5 17 -11 3 -6 17 -8 31 -4 16 4 22 2 18 -5 -3 -5 1 -10 9 -10 9 0 16 5 16 10 0 6 14 8 33 5 88 -15 102 -19 108 -27 3 -5 9 -3 12 6 4 11 1 16 -11 16 -14 0 -15 2 -3 9 9 6 22 6 33 0 10 -5 24 -9 31 -7 7 2 13 -1 14 -7 0 -5 -2 -9 -6 -8 -4 1 -8 -4 -8 -12 0 -8 4 -12 8 -9 4 2 9 1 12 -3 2 -5 2 -2 1 4 -5 20 35 43 60 34 11 -5 31 -5 44 0 20 8 21 7 12 -11 -8 -16 -8 -18 4 -14 10 4 14 -2 12 -20 0 -14 -7 -28 -14 -31 -7 -3 -10 0 -7 5 3 6 -1 7 -10 4 -14 -6 -13 -8 5 -21 19 -13 30 -40 11 -29 -5 3 -12 -1 -15 -10 -8 -21 -8 -24 5 -24 5 0 7 5 4 10 -3 6 1 10 9 10 10 0 13 -6 10 -15 -4 -8 -11 -15 -18 -15 -7 0 -6 -4 2 -9 8 -4 13 -11 13 -15 -1 -3 2 -7 7 -8 7 -3 20 188 14 209 -3 9 -9 10 -22 3 -9 -5 -20 -7 -23 -3 -10 10 -86 9 -79 -1 3 -5 -3 -6 -14 -2 -43 17 -92 17 -109 0 -14 -14 -18 -15 -25 -4 -7 11 -41 14 -147 15 -76 0 -140 3 -143 7 -3 4 -18 1 -33 -7z m75 -27 c-9 -9 -15 -9 -24 0 -9 9 -7 12 12 12 19 0 21 -3 12 -12z"/>
<path d="M146 1431 c-4 -6 4 -15 19 -21 34 -13 42 -13 51 1 4 8 -1 9 -17 4 -21 -7 -22 -6 -10 9 8 9 9 16 3 16 -6 0 -14 -5 -18 -11 -5 -8 -9 -8 -14 1 -5 9 -9 9 -14 1z"/>
<path d="M220 1430 c8 -5 31 -7 52 -5 35 4 38 2 39 -23 0 -16 3 -21 6 -12 11 26 31 42 36 27 3 -7 6 -5 6 6 1 15 -9 17 -76 17 -52 0 -73 -3 -63 -10z"/>
<path d="M376 1432 c-14 -14 -3 -19 40 -16 26 1 41 -1 35 -6 -7 -4 -12 -16 -11 -26 4 -32 1 -35 -19 -25 -14 8 -20 7 -24 -2 -3 -8 6 -12 24 -13 16 -1 29 3 29 7 0 5 8 9 17 9 15 0 15 2 -2 14 -17 13 -18 15 -3 30 12 11 19 13 24 5 3 -6 0 -16 -7 -21 -11 -8 -11 -9 1 -5 32 10 71 -37 45 -55 -6 -5 -3 -8 6 -8 19 0 26 21 25 70 -1 31 -4 35 -31 38 -29 3 -29 3 -10 -12 11 -8 16 -16 10 -16 -5 0 -3 -5 5 -10 9 -6 10 -10 3 -10 -13 0 -39 24 -45 40 -4 12 -102 22 -112 12z"/>
<path d="M635 1429 c3 -4 -2 -9 -10 -13 -19 -7 -19 -26 0 -26 8 0 15 -5 15 -11 0 -6 -7 -9 -15 -6 -11 5 -14 -4 -12 -47 1 -30 5 -52 9 -50 4 2 6 18 6 34 -1 41 26 80 52 73 18 -5 24 -15 21 -36 -1 -4 8 -2 19 5 l20 13 -20 9 c-21 10 -28 31 -7 23 6 -2 23 -8 37 -12 22 -7 23 -6 12 8 -8 9 -20 13 -28 10 -8 -3 -14 0 -14 6 0 6 -13 11 -30 11 -16 0 -30 4 -30 8 0 5 -7 9 -15 9 -8 0 -12 -4 -10 -8z m25 -19 c0 -5 -4 -10 -10 -10 -5 0 -10 5 -10 10 0 6 5 10 10 10 6 0 10 -4 10 -10z m30 -10 c0 -5 -5 -10 -11 -10 -5 0 -7 5 -4 10 3 6 8 10 11 10 2 0 4 -4 4 -10z"/>
<path d="M1707 1433 c-4 -3 -42 -6 -84 -7 l-78 -1 0 -30 c0 -16 -4 -37 -9 -45 -5 -8 3 -4 17 9 15 14 27 31 27 38 0 8 5 11 10 8 6 -3 10 -1 10 6 0 6 9 1 19 -12 l19 -24 21 24 c18 20 21 21 27 7 7 -20 27 -21 57 -3 25 16 200 12 176 -4 -8 -5 -28 -9 -46 -9 -26 0 -31 -3 -26 -17 4 -11 8 -12 11 -5 2 7 15 12 28 12 14 0 22 -4 19 -10 -3 -5 -1 -10 5 -10 7 0 10 7 6 15 -3 9 0 15 9 15 8 0 15 5 15 10 0 6 4 10 10 10 5 0 7 -7 3 -15 -3 -9 -2 -15 3 -14 33 6 39 -23 10 -43 -8 -5 -7 -8 1 -8 14 0 26 18 30 43 2 10 -3 17 -12 17 -8 0 -15 7 -15 16 0 9 6 14 13 11 8 -3 14 1 14 8 0 9 -8 10 -29 4 -17 -4 -40 -4 -54 1 -13 5 -24 6 -24 1 0 -9 -37 -8 -46 2 -4 4 -13 2 -20 -4 -8 -7 -14 -7 -18 0 -5 7 -15 7 -32 1 -16 -7 -32 -7 -43 0 -10 5 -21 7 -24 3z m-67 -29 c0 -8 -5 -12 -10 -9 -6 4 -8 11 -5 16 9 14 15 11 15 -7z m95 6 c-3 -5 -13 -10 -21 -10 -8 0 -14 5 -14 10 0 6 9 10 21 10 11 0 17 -4 14 -10z"/>
<path d="M266 1411 c-7 -11 22 -36 31 -27 3 3 1 6 -6 6 -7 0 -10 4 -6 9 3 5 1 12 -4 15 -5 4 -12 2 -15 -3z"/>
<path d="M10 1400 c-13 -8 -12 -10 3 -10 9 0 17 5 17 10 0 12 -1 12 -20 0z"/>
<path d="M130 1400 c0 -5 5 -10 10 -10 6 0 10 5 10 10 0 6 -4 10 -10 10 -5 0 -10 -4 -10 -10z"/>
<path d="M386 1402 c-19 -2 -25 -6 -17 -12 9 -5 1 -10 -23 -14 -48 -9 -53 -22 -7 -18 33 3 93 36 81 44 -3 2 -18 2 -34 0z"/>
<path d="M1141 1396 c-11 -14 -5 -26 13 -26 6 0 4 5 -4 11 -12 8 -10 9 8 4 12 -3 22 -2 22 3 0 16 -28 22 -39 8z"/>
<path d="M1781 1391 c8 -11 19 -16 31 -13 16 4 16 6 -8 18 -34 18 -36 18 -23 -5z"/>
<path d="M220 1385 c-8 -10 -8 -15 1 -21 8 -4 9 -3 5 4 -9 15 6 16 20 2 7 -7 11 -6 11 4 0 21 -23 28 -37 11z"/>
<path d="M1050 1390 c-8 -5 -12 -11 -10 -14 3 -2 14 2 24 10 22 15 10 19 -14 4z"/>
<path d="M1394 1392 c5 -8 -1 -12 -16 -13 -13 0 -17 -3 -10 -6 10 -4 9 -9 -4 -24 -9 -10 -13 -19 -8 -18 5 0 19 13 32 29 16 20 19 31 11 36 -8 4 -9 3 -5 -4z"/>
<path d="M60 1376 c14 -7 30 -9 36 -4 6 4 14 5 17 1 4 -3 7 -1 7 5 0 15 -17 16 -26 1 -4 -8 -9 -8 -17 0 -6 6 -18 11 -26 11 -10 0 -6 -6 9 -14z"/>
<path d="M1077 1366 c-9 -13 -18 -30 -19 -37 -3 -14 -42 -39 -60 -39 -6 0 -7 8 -4 17 6 16 6 16 -12 0 -10 -9 -21 -14 -25 -11 -3 3 -16 -1 -29 -10 -17 -12 -19 -16 -6 -16 9 0 19 4 22 9 6 9 48 7 65 -4 6 -3 14 1 17 10 4 10 13 13 25 10 11 -4 19 -2 19 4 0 15 61 42 82 35 25 -7 23 -23 -2 -17 -12 3 -20 0 -20 -6 0 -7 -4 -9 -10 -6 -5 3 -10 2 -10 -4 0 -6 -7 -7 -17 -4 -11 4 -14 3 -9 -6 5 -7 15 -10 23 -7 9 4 17 -1 20 -15 3 -12 11 -18 19 -15 8 3 24 2 36 -3 l21 -8 -24 -16 c-25 -18 -19 -23 10 -7 10 5 21 17 25 25 3 9 2 13 -3 10 -5 -3 -12 -1 -15 4 -4 5 -17 8 -31 7 -27 -3 -38 13 -24 35 8 12 10 12 18 0 11 -17 25 3 17 24 -3 8 -2 15 2 15 4 0 15 12 25 25 l18 25 -25 -11 c-14 -7 -24 -17 -23 -23 1 -7 -10 -10 -30 -8 -17 2 -34 -2 -37 -7 -4 -6 -13 -8 -22 -4 -13 5 -13 8 2 24 10 11 15 21 12 24 -3 3 -13 -5 -21 -19z"/>
<path d="M1657 1377 c-3 -8 10 -13 41 -14 49 -2 46 11 -5 20 -20 4 -33 2 -36 -6z"/>
<path d="M130 1373 c0 -5 11 -9 25 -9 14 -1 22 2 19 7 -6 11 -44 12 -44 2z"/>
<path d="M1002 1367 c-15 -18 25 -44 42 -27 8 8 7 10 -5 5 -21 -8 -36 14 -18 26 8 5 9 9 3 9 -6 0 -16 -6 -22 -13z"/>
<path d="M1238 1375 c-4 -4 -4 -14 -1 -23 5 -12 2 -14 -11 -9 -9 4 -15 3 -11 -2 3 -6 -2 -14 -11 -19 -15 -8 -15 -10 0 -15 10 -4 14 -3 11 2 -8 13 13 24 32 17 12 -5 13 -9 3 -21 -7 -9 -8 -15 -2 -15 14 0 22 26 12 36 -5 5 -10 20 -12 32 -1 13 -6 21 -10 17z"/>
<path d="M1593 1366 c4 -10 -2 -16 -16 -18 -18 -2 -23 -11 -27 -50 -3 -26 -3 -55 1 -65 3 -10 0 -33 -8 -51 -8 -19 -9 -31 -4 -27 6 3 12 1 12 -4 1 -6 2 -17 3 -23 1 -7 -1 -25 -5 -40 -5 -18 -4 -28 3 -28 6 0 6 -6 -2 -15 -7 -8 -10 -15 -7 -15 3 0 12 -3 21 -6 11 -4 14 0 13 15 -1 12 -5 21 -10 21 -4 0 -5 6 0 13 4 6 8 20 8 30 0 10 6 22 14 26 9 6 10 11 2 15 -6 4 -11 2 -11 -4 0 -6 -5 -8 -10 -5 -6 4 -8 11 -5 16 4 5 0 9 -7 9 -8 0 -7 4 4 11 13 7 15 15 9 32 -17 46 23 92 54 61 15 -15 35 -11 35 7 0 6 -5 7 -10 4 -6 -4 -18 -1 -26 6 -8 6 -17 9 -21 6 -3 -4 -15 -1 -26 4 -16 9 -17 13 -6 20 12 8 12 11 -1 19 -11 8 -1 10 37 7 29 -3 50 -1 48 4 -3 4 -13 5 -22 2 -12 -5 -14 -3 -8 7 6 9 4 11 -5 5 -10 -6 -12 -4 -7 8 4 12 1 17 -9 17 -10 0 -14 -6 -11 -14z"/>
<path d="M1748 1358 c-17 -17 -16 -17 10 -12 15 3 38 1 52 -5 14 -5 19 -10 12 -10 -15 -1 -6 -21 9 -21 11 0 13 40 2 41 -29 3 -58 11 -63 17 -3 5 -13 0 -22 -10z"/>
<path d="M40 1365 c1 -19 25 -40 50 -42 24 -2 24 -1 -3 11 -16 7 -33 19 -38 27 -5 8 -9 10 -9 4z"/>
<path d="M1268 1363 c7 -3 16 -2 19 1 4 3 -2 6 -13 5 -11 0 -14 -3 -6 -6z"/>
<path d="M1940 1360 c0 -5 5 -10 10 -10 6 0 10 5 10 10 0 6 -4 10 -10 10 -5 0 -10 -4 -10 -10z"/>
<path d="M495 1352 c3 -3 1 -10 -4 -16 -14 -18 -22 -48 -11 -41 6 3 10 13 10 21 0 8 4 14 9 14 5 0 11 6 14 13 3 8 -1 14 -9 14 -8 0 -12 -3 -9 -5z"/>
<path d="M960 1346 c0 -8 -8 -16 -17 -18 -10 -2 -13 -6 -8 -9 6 -4 24 0 40 7 20 9 24 13 12 14 -10 0 -15 5 -12 10 3 6 1 10 -4 10 -6 0 -11 -6 -11 -14z"/>
<path d="M1305 1350 c-3 -6 1 -7 9 -4 18 7 21 14 7 14 -6 0 -13 -4 -16 -10z"/>
<path d="M9 1336 c13 -15 13 -19 0 -28 -12 -8 -12 -9 1 -5 8 2 15 12 15 22 0 10 -7 21 -15 23 -13 5 -13 3 -1 -12z"/>
<path d="M133 1343 c-22 -8 9 -31 37 -27 40 7 52 13 45 24 -5 8 -11 8 -20 0 -9 -8 -15 -8 -20 0 -6 10 -21 12 -42 3z"/>
<path d="M233 1330 c1 -11 7 -22 14 -24 7 -3 13 -15 13 -27 0 -16 -5 -20 -19 -16 -15 3 -18 1 -14 -11 4 -10 2 -13 -5 -8 -6 3 -14 0 -19 -7 -4 -7 -24 -19 -43 -25 l-35 -12 34 5 c28 4 32 2 27 -13 -3 -9 5 -3 19 13 29 35 64 39 83 10 8 -13 12 -15 11 -5 -3 23 12 51 23 44 6 -4 14 -1 18 6 5 8 -2 22 -17 36 -14 13 -20 24 -13 24 7 0 19 -8 27 -17 8 -10 11 -12 7 -4 -4 8 0 19 10 27 15 10 12 12 -22 11 -35 -2 -39 -4 -36 -24 6 -32 -9 -29 -39 7 -22 25 -26 27 -24 10z m87 -50 c0 -11 -22 -27 -50 -35 -24 -7 -24 -7 -7 12 9 11 15 22 13 24 -2 2 7 5 20 5 13 1 24 -2 24 -6z"/>
<path d="M653 1343 c-15 -5 -18 -33 -4 -33 8 0 25 30 19 35 -2 1 -9 0 -15 -2z"/>
<path d="M1670 1319 c-19 -16 -30 -29 -25 -27 18 4 56 -22 48 -35 -10 -16 -13 -41 -5 -32 4 4 7 12 7 18 0 5 6 12 14 15 8 3 11 0 7 -7 -4 -6 -3 -11 2 -11 6 0 12 7 16 15 3 8 0 15 -6 15 -9 0 -9 3 0 12 9 9 16 7 32 -10 23 -25 32 -28 24 -9 -7 20 -44 39 -57 29 -11 -7 -18 -8 -44 -3 -5 1 5 8 21 16 15 8 33 12 39 8 6 -3 7 -1 3 6 -4 6 -15 10 -24 9 -9 -2 -16 3 -14 10 3 17 2 16 -38 -19z m34 2 c3 -5 -3 -11 -15 -14 -16 -4 -18 -3 -8 9 13 16 16 17 23 5z"/>
<path d="M1869 1339 c14 -5 28 -6 33 -1 4 4 -7 9 -25 9 -30 2 -31 2 -8 -8z"/>
<path d="M675 1329 c-3 -4 8 -15 23 -25 24 -15 25 -15 13 -1 -7 9 -12 17 -10 18 2 0 12 2 22 4 35 6 30 15 -7 13 -20 -1 -39 -5 -41 -9z"/>
<path d="M373 1316 c-4 -5 -1 -6 6 -2 8 5 14 0 18 -13 6 -23 18 -27 28 -10 4 6 13 8 20 5 11 -4 25 13 25 28 0 8 -92 0 -97 -8z m74 -2 c-3 -3 -12 -4 -19 -1 -8 3 -5 6 6 6 11 1 17 -2 13 -5z"/>
<path d="M850 1326 c0 -2 13 -6 29 -8 17 -2 28 -1 25 4 -5 8 -54 12 -54 4z"/>
<path d="M1288 1318 c-9 -5 -9 -8 -1 -8 6 0 10 -11 9 -25 -2 -13 1 -22 6 -19 5 3 7 12 4 20 -3 8 1 14 9 14 8 0 15 6 15 13 0 15 -22 18 -42 5z"/>
<path d="M1382 1313 c2 -11 -2 -17 -10 -15 -8 1 -11 -2 -7 -8 7 -11 35 -13 59 -4 13 5 12 9 -8 25 -30 24 -38 24 -34 2z m28 -8 c10 -12 10 -15 -2 -15 -8 0 -15 7 -15 15 0 8 1 15 2 15 2 0 8 -7 15 -15z"/>
<path d="M1925 1320 c28 -12 37 -12 30 0 -3 6 -16 10 -28 9 -21 0 -21 -1 -2 -9z"/>
<path d="M110 1305 c-10 -13 -9 -15 9 -15 11 0 21 -5 21 -11 0 -6 -7 -8 -16 -5 -8 3 -13 2 -10 -3 3 -5 14 -11 23 -13 13 -4 18 1 19 18 1 13 -1 23 -5 22 -19 -2 -31 3 -26 12 9 15 -1 12 -15 -5z"/>
<path d="M730 1310 c0 -5 5 -10 10 -10 6 0 10 5 10 10 0 6 -4 10 -10 10 -5 0 -10 -4 -10 -10z"/>
<path d="M1768 1313 c7 -3 16 -2 19 1 4 3 -2 6 -13 5 -11 0 -14 -3 -6 -6z"/>
<path d="M190 1300 c0 -6 -5 -8 -12 -4 -7 4 -8 3 -4 -4 4 -7 21 -12 38 -12 17 0 28 3 24 8 -4 4 -11 7 -14 7 -4 0 -13 4 -19 8 -8 5 -13 4 -13 -3z"/>
<path d="M526 1295 c18 -14 18 -14 -9 -15 -16 0 -26 -4 -22 -10 8 -13 45 -7 55 10 10 16 -5 30 -29 30 -11 0 -9 -4 5 -15z"/>
<path d="M866 1299 c3 -6 0 -16 -7 -21 -12 -8 -11 -9 1 -5 18 4 27 37 10 37 -6 0 -8 -5 -4 -11z"/>
<path d="M1874 1295 c3 -23 12 -26 13 -5 1 11 -2 20 -7 20 -4 0 -7 -7 -6 -15z"/>
<path d="M1908 1303 c6 -2 12 -14 12 -26 0 -17 2 -19 9 -8 12 19 3 41 -18 40 -10 0 -11 -2 -3 -6z"/>
<path d="M51 1291 c-7 -5 -12 -14 -10 -20 2 -6 10 -2 17 9 14 22 13 23 -7 11z"/>
<path d="M645 1292 c3 -3 0 -11 -6 -18 -6 -8 -7 -14 0 -18 6 -4 8 -13 4 -21 -3 -8 0 -15 7 -15 8 0 10 10 5 33 -4 20 -3 27 3 19 5 -7 15 -12 22 -10 23 5 23 -30 1 -37 -25 -8 -28 -25 -5 -25 13 0 14 -3 4 -15 -7 -8 -16 -12 -21 -9 -5 3 -9 0 -9 -5 0 -17 18 -13 39 8 21 21 38 16 20 -5 -21 -26 1 -34 31 -12 17 12 28 24 25 26 -3 3 -16 -5 -30 -18 -28 -27 -34 -17 -7 13 9 11 12 17 5 14 -6 -4 -14 -3 -18 3 -4 6 -10 8 -15 5 -5 -3 -11 -1 -14 4 -7 11 22 23 35 15 5 -3 9 -1 9 5 0 5 -6 12 -12 14 -7 3 1 6 17 8 65 5 99 2 103 -9 4 -14 -54 -17 -60 -3 -1 4 -12 5 -23 0 -18 -7 -18 -8 5 -8 19 -1 22 -3 10 -10 -8 -6 -18 -7 -24 -4 -5 3 -6 1 -2 -5 4 -6 13 -9 21 -5 10 3 15 -1 15 -13 0 -14 3 -15 12 -6 10 10 10 14 0 21 -9 5 -2 8 18 9 34 1 63 19 54 33 -3 5 -10 7 -15 4 -5 -4 -13 5 -19 19 -5 14 -12 26 -15 26 -4 0 -4 -4 -1 -9 3 -5 -1 -12 -10 -15 -26 -10 -34 -7 -28 12 3 10 0 9 -7 -4 -9 -18 -16 -20 -47 -14 -52 9 -57 11 -55 19 1 4 -5 8 -13 8 -7 0 -12 -3 -9 -5z"/>
<path d="M1190 1296 c0 -2 8 -10 18 -17 15 -13 16 -12 3 4 -13 16 -21 21 -21 13z"/>
<path d="M360 1280 c0 -5 5 -10 10 -10 6 0 10 5 10 10 0 6 -4 10 -10 10 -5 0 -10 -4 -10 -10z"/>
<path d="M1338 1283 c6 -2 12 -11 12 -19 0 -7 -6 -11 -13 -8 -7 2 -24 0 -38 -5 -23 -9 -23 -10 9 -10 31 -1 44 -15 20 -23 -7 -3 -3 -7 9 -10 26 -7 51 16 32 28 -8 4 -9 3 -5 -4 4 -7 2 -12 -3 -12 -14 0 -14 27 -1 35 13 8 -6 35 -24 34 -7 0 -6 -2 2 -6z"/>
<path d="M445 1270 c26 -11 35 -12 35 -2 0 4 -12 8 -27 9 -24 1 -25 1 -8 -7z"/>
<path d="M1236 1271 c-3 -4 6 -6 19 -3 14 2 25 6 25 8 0 8 -39 4 -44 -5z"/>
<path d="M1807 1265 c3 -8 9 -12 14 -9 12 7 11 11 -5 17 -10 4 -13 1 -9 -8z"/>
<path d="M381 1253 c-8 -14 -10 -15 -11 -3 0 9 -8 3 -19 -13 -10 -16 -22 -29 -27 -29 -20 0 -13 -6 11 -10 14 -3 28 -1 32 5 3 6 1 7 -5 3 -7 -4 -12 -3 -12 3 0 17 22 24 31 10 9 -15 13 -6 9 26 -2 16 0 17 14 6 9 -7 14 -16 11 -20 -2 -4 12 -7 31 -6 49 3 51 -10 3 -24 -31 -9 -39 -16 -34 -28 3 -9 0 -20 -7 -25 -9 -5 -6 -8 10 -8 12 0 21 3 20 8 -4 18 15 40 30 35 15 -4 15 -3 2 6 -12 9 -11 11 8 11 16 0 21 -4 16 -12 -4 -7 -4 -10 1 -6 10 10 34 -21 35 -44 0 -10 -9 -22 -21 -28 -11 -7 -18 -14 -15 -17 3 -3 12 -1 19 5 21 18 29 1 10 -20 -9 -10 -11 -18 -5 -18 18 0 30 31 30 81 1 26 2 51 3 55 4 25 -3 44 -17 44 -14 0 -14 -2 1 -16 9 -9 13 -19 10 -22 -3 -4 -10 0 -15 8 -6 8 -10 10 -10 5 0 -6 5 -16 12 -23 6 -6 9 -15 5 -19 -9 -8 -37 29 -31 39 3 5 0 8 -7 8 -8 0 -8 4 1 15 9 10 9 15 1 15 -6 0 -11 -4 -11 -8 0 -9 -58 -7 -67 2 -4 3 0 6 8 6 11 0 11 2 -1 10 -22 14 -38 12 -49 -7z"/>
<path d="M1010 1263 c-8 -3 -22 -7 -30 -10 -18 -7 -18 -7 -52 1 -16 3 -28 2 -28 -3 0 -15 63 -19 105 -7 22 7 35 14 30 18 -6 3 -17 3 -25 1z"/>
<path d="M1085 1259 c-4 -6 -14 -8 -24 -4 -13 5 -14 4 -3 -6 10 -11 15 -10 29 4 10 9 14 17 11 17 -4 0 -10 -5 -13 -11z"/>
<path d="M1953 1253 c0 -9 4 -10 14 -2 7 6 13 12 13 14 0 1 -6 2 -13 2 -8 0 -14 -6 -14 -14z"/>
<path d="M612 1140 c1 -86 6 -124 15 -132 7 -6 13 -7 13 -3 0 4 6 3 13 -2 6 -6 44 -9 82 -7 39 2 101 3 138 3 44 1 66 4 62 11 -3 5 -2 10 4 10 5 0 12 -4 16 -10 3 -5 27 -9 53 -8 36 1 42 3 27 10 -17 7 -17 8 5 4 14 -2 34 0 45 4 18 8 18 9 -5 10 -59 3 -94 11 -102 23 -5 9 -10 9 -20 -2 -8 -9 -9 -11 -1 -7 6 3 14 2 18 -4 4 -6 -5 -10 -20 -10 -15 0 -28 7 -32 18 -10 25 -25 32 -40 17 -18 -19 -16 -27 5 -23 11 2 18 -1 18 -7 -1 -5 -9 -9 -18 -8 -10 2 -18 -2 -18 -7 0 -6 -5 -10 -11 -10 -5 0 -7 5 -4 10 3 6 0 10 -7 10 -9 0 -9 3 2 10 17 11 16 11 -22 16 -31 3 -38 -10 -11 -20 15 -6 15 -8 3 -16 -8 -6 -22 -9 -30 -9 -10 0 -9 3 4 8 14 5 16 10 8 15 -15 9 -32 -1 -32 -20 0 -17 -5 -17 -28 -4 -9 6 -42 19 -72 30 -53 18 -53 19 -20 20 25 0 31 3 21 9 -8 5 -20 7 -27 4 -21 -8 -10 26 14 43 13 9 31 13 45 9 17 -5 19 -4 7 4 -8 6 -22 11 -31 11 -8 0 -23 6 -33 13 -15 11 -17 17 -7 35 8 16 9 22 1 22 -6 0 -10 10 -8 22 2 11 -2 23 -9 25 -9 3 -12 -25 -11 -117z m44 -18 c-9 -9 -37 8 -31 18 5 8 11 7 21 -1 8 -6 12 -14 10 -17z m20 -96 c19 -15 19 -15 -2 -13 -24 1 -54 27 -31 27 7 0 22 -6 33 -14z m329 -6 c3 -5 -3 -10 -15 -10 -12 0 -18 5 -15 10 3 6 10 10 15 10 5 0 12 -4 15 -10z m-272 -17 c-7 -2 -19 -2 -25 0 -7 3 -2 5 12 5 14 0 19 -2 13 -5z"/>
<path d="M1882 1246 c7 -8 17 -12 22 -9 4 3 2 9 -5 14 -22 13 -31 11 -17 -5z"/>
<path d="M1985 1250 c-3 -5 -1 -10 4 -10 6 0 11 5 11 10 0 6 -2 10 -4 10 -3 0 -8 -4 -11 -10z"/>
<path d="M61 1234 c6 -7 16 -11 21 -8 11 7 3 17 -18 20 -12 2 -13 -1 -3 -12z"/>
<path d="M170 1240 c-9 -6 -10 -10 -3 -10 6 0 15 5 18 10 8 12 4 12 -15 0z"/>
<path d="M1225 1240 c-3 -5 -2 -10 4 -10 5 0 13 5 16 10 3 6 2 10 -4 10 -5 0 -13 -4 -16 -10z"/>
<path d="M1252 1229 c-8 -12 -9 -18 -3 -15 5 4 14 -2 20 -11 6 -10 11 -13 11 -6 0 6 -4 14 -10 18 -5 3 -7 12 -3 20 8 22 0 18 -15 -6z"/>
<path d="M1587 1243 c-4 -3 -7 -11 -7 -17 0 -6 5 -5 12 2 6 6 9 14 7 17 -3 3 -9 2 -12 -2z"/>
<path d="M1925 1240 c3 -5 8 -10 11 -10 2 0 4 5 4 10 0 6 -5 10 -11 10 -5 0 -7 -4 -4 -10z"/>
<path d="M0 1236 c0 -2 7 -7 16 -10 8 -3 12 -2 9 4 -6 10 -25 14 -25 6z"/>
<path d="M107 1234 c-4 -4 -4 -10 -1 -15 6 -10 34 0 34 12 0 10 -24 12 -33 3z"/>
<path d="M1113 1229 c3 -9 0 -22 -6 -28 -8 -8 -8 -11 1 -11 7 0 12 5 12 11 0 5 4 8 9 4 5 -3 13 0 17 6 4 7 3 9 -4 5 -6 -3 -16 2 -22 11 -9 14 -10 15 -7 2z"/>
<path d="M1644 1231 c3 -5 -1 -14 -9 -21 -14 -12 -19 -7 -16 13 1 5 -4 5 -10 2 -8 -5 -6 -12 4 -22 17 -17 32 -11 47 18 9 15 7 19 -5 19 -9 0 -14 -4 -11 -9z"/>
<path d="M1810 1225 c-7 -8 -9 -15 -6 -15 4 0 14 7 22 15 9 8 11 15 6 15 -5 0 -15 -7 -22 -15z"/>
<path d="M880 1220 c8 -5 20 -10 25 -10 6 0 3 5 -5 10 -8 5 -19 10 -25 10 -5 0 -3 -5 5 -10z"/>
<path d="M1042 1214 c-7 -8 -8 -14 -3 -14 10 0 25 19 20 25 -2 1 -10 -3 -17 -11z"/>
<path d="M1727 1223 c-12 -11 -8 -21 13 -26 13 -3 20 0 20 9 0 8 -6 11 -17 7 -11 -4 -14 -3 -9 5 8 13 3 16 -7 5z"/>
<path d="M1905 1219 c-4 -6 -4 -13 -1 -16 3 -4 6 -1 6 6 0 7 5 9 12 5 7 -4 8 -3 4 4 -9 15 -13 15 -21 1z"/>
<path d="M1956 1214 c-5 -14 -4 -15 9 -4 17 14 19 20 6 20 -5 0 -12 -7 -15 -16z"/>
<path d="M1991 1214 c0 -11 3 -14 6 -6 3 7 2 16 -1 19 -3 4 -6 -2 -5 -13z"/>
<path d="M235 1206 c-14 -17 -17 -36 -5 -36 6 0 10 7 10 16 0 8 5 12 11 8 6 -3 9 -15 6 -25 -4 -15 -2 -17 13 -9 9 5 21 6 25 2 5 -4 0 5 -11 20 -23 33 -36 39 -49 24z"/>
<path d="M1292 1208 c2 -6 10 -13 16 -14 7 -1 8 0 2 3 -5 2 -8 9 -4 14 3 5 0 9 -6 9 -7 0 -10 -5 -8 -12z"/>
<path d="M1818 1199 c-43 -22 -44 -24 -22 -33 8 -3 13 -2 10 3 -8 12 61 44 76 35 7 -4 8 -3 4 4 -10 16 -25 14 -68 -9z"/>
<path d="M47 1196 c-4 -10 0 -12 14 -9 10 3 16 9 13 14 -8 13 -21 11 -27 -5z"/>
<path d="M825 1200 c-19 -8 -19 -9 3 -9 12 -1 22 4 22 9 0 6 -1 10 -2 9 -2 0 -12 -4 -23 -9z"/>
<path d="M1200 1206 c0 -2 7 -6 15 -10 8 -3 15 -1 15 4 0 6 -7 10 -15 10 -8 0 -15 -2 -15 -4z"/>
<path d="M1386 1197 c-26 -11 -27 -14 -12 -26 14 -12 16 -12 10 4 -5 12 -4 16 3 12 6 -4 16 0 23 8 15 18 14 18 -24 2z"/>
<path d="M1459 1201 c0 -3 -2 -13 -4 -22 -2 -12 3 -15 16 -12 22 6 26 40 4 40 -8 0 -15 -3 -16 -6z"/>
<path d="M1687 1198 c-3 -9 -16 -18 -29 -20 -19 -3 -20 -4 -6 -10 20 -8 52 14 46 32 -3 11 -6 10 -11 -2z"/>
<path d="M5 1190 c-3 -5 -1 -10 5 -10 6 0 8 -5 4 -12 -4 -7 -3 -8 4 -4 6 4 9 13 5 21 -6 18 -10 19 -18 5z"/>
<path d="M90 1190 c0 -5 3 -9 8 -9 4 1 14 1 22 -1 11 -1 9 -4 -5 -10 -16 -7 -17 -9 -3 -9 9 -1 20 4 23 9 4 6 11 7 17 4 5 -4 -3 -15 -19 -25 -30 -20 -48 -25 -39 -10 3 4 -1 16 -8 26 -10 14 -15 15 -21 5 -5 -9 -4 -11 3 -6 7 4 12 2 12 -3 0 -6 0 -14 0 -18 0 -12 -23 -11 -39 1 -10 8 -15 8 -18 -2 -3 -6 -8 -10 -12 -8 -4 3 -7 -7 -8 -22 0 -15 1 -20 4 -10 2 9 11 19 19 22 12 4 14 1 9 -14 -4 -12 -2 -20 6 -20 9 0 8 -4 -1 -15 -9 -10 -9 -15 -1 -15 6 0 11 5 11 11 0 5 5 7 10 4 6 -3 10 -1 10 4 0 6 5 11 11 11 5 0 8 -4 4 -9 -3 -5 0 -13 6 -16 7 -5 10 0 7 11 -2 12 -12 19 -25 19 -40 0 -29 20 12 23 22 2 43 8 47 15 5 8 11 7 22 -2 20 -17 21 -32 1 -25 -14 6 -33 -21 -23 -31 5 -5 78 54 78 63 0 11 -63 49 -92 56 -17 4 -28 2 -28 -4z m98 -54 c3 -12 -1 -17 -10 -14 -7 3 -15 13 -16 22 -3 12 1 17 10 14 7 -3 15 -13 16 -22z"/>
<path d="M362 1183 c-19 -13 -25 -14 -32 -4 -5 8 -10 9 -14 3 -3 -6 8 -15 26 -21 39 -14 41 -14 32 1 -4 6 1 17 11 25 27 19 5 15 -23 -4z"/>
<path d="M985 1190 c-3 -6 1 -7 9 -4 18 7 21 14 7 14 -6 0 -13 -4 -16 -10z"/>
<path d="M1060 1180 c0 -5 5 -10 11 -10 5 0 7 5 4 10 -3 6 -8 10 -11 10 -2 0 -4 -4 -4 -10z"/>
<path d="M1188 1179 c13 -5 21 -13 18 -17 -3 -5 1 -9 9 -9 8 0 15 4 15 8 0 10 -35 29 -52 28 -7 0 -3 -4 10 -10z"/>
<path d="M1870 1178 c0 -6 -10 -8 -21 -5 -12 3 -18 3 -13 -1 5 -4 22 -18 38 -32 l29 -25 -18 28 c-9 15 -15 28 -11 28 3 1 10 2 15 3 19 2 19 12 1 13 -11 1 -20 -3 -20 -9z"/>
<path d="M1924 1181 c4 -5 1 -12 -4 -14 -6 -3 -5 -4 2 -3 15 3 23 26 8 26 -6 0 -9 -4 -6 -9z"/>
<path d="M870 1165 c-16 -19 -1 -19 24 0 16 12 17 15 4 15 -8 0 -21 -7 -28 -15z"/>
<path d="M1116 1172 c-3 -5 1 -9 9 -9 8 0 12 4 9 9 -3 4 -7 8 -9 8 -2 0 -6 -4 -9 -8z"/>
<path d="M1273 1166 c-13 -6 -23 -14 -23 -18 0 -12 18 -10 26 3 3 6 14 9 24 6 13 -3 17 0 13 9 -6 16 -9 16 -40 0z"/>
<path d="M1586 1171 c-3 -5 1 -11 9 -14 9 -4 12 -1 8 9 -6 16 -10 17 -17 5z"/>
<path d="M1729 1169 c-10 -6 -7 -9 13 -9 14 0 29 -6 31 -12 4 -10 6 -10 6 -1 1 18 -32 33 -50 22z"/>
<path d="M763 1155 c-17 -18 -16 -22 2 -22 8 0 13 3 10 5 -3 3 0 11 6 19 15 18 -3 16 -18 -2z"/>
<path d="M825 1160 c-3 -6 1 -7 9 -4 18 7 21 14 7 14 -6 0 -13 -4 -16 -10z"/>
<path d="M968 1157 c18 -7 31 -16 28 -20 -3 -4 -1 -3 6 3 15 13 10 16 -32 24 l-35 6 33 -13z"/>
<path d="M1077 1163 c-9 -2 -15 -9 -11 -14 3 -5 10 -7 15 -4 5 4 9 1 9 -4 0 -6 9 -20 20 -31 26 -26 26 -16 0 20 -11 15 -17 30 -13 34 3 3 4 5 2 5 -2 -1 -12 -3 -22 -6z"/>
<path d="M1152 1155 c-11 -13 -10 -19 3 -37 8 -12 15 -17 15 -10 0 8 5 10 12 6 7 -4 8 -3 4 5 -4 6 -12 9 -17 6 -5 -4 -9 1 -9 9 0 9 5 16 10 16 6 0 10 5 10 10 0 14 -13 12 -28 -5z"/>
<path d="M1334 1163 c3 -4 -1 -14 -10 -24 -15 -16 -14 -17 5 -12 11 3 19 9 16 13 -3 5 -1 11 4 14 5 4 12 2 16 -4 3 -5 12 -10 18 -10 7 0 3 6 -8 12 -21 13 -51 20 -41 11z"/>
<path d="M1410 1160 c-13 -8 -12 -10 3 -10 9 0 17 5 17 10 0 12 -1 12 -20 0z"/>
<path d="M493 1145 c0 -9 4 -14 9 -13 5 2 10 8 10 13 0 5 -5 11 -10 13 -5 1 -9 -4 -9 -13z"/>
<path d="M1020 1156 c0 -2 7 -7 16 -10 8 -3 12 -2 9 4 -6 10 -25 14 -25 6z"/>
<path d="M1622 1148 c-7 -7 -12 -18 -12 -26 0 -8 -6 -12 -13 -9 -8 3 -14 -1 -14 -8 0 -10 5 -11 19 -4 22 12 23 1 1 -23 -9 -10 -11 -18 -5 -18 6 0 14 5 17 10 9 14 35 12 33 -2 -2 -7 -7 -17 -13 -21 -6 -5 2 -6 16 -3 14 3 34 0 43 -7 16 -11 12 -13 -25 -12 -23 1 -44 6 -47 13 -5 15 -32 16 -32 1 0 -5 4 -8 9 -5 5 4 11 2 13 -3 1 -6 20 -17 40 -26 34 -14 37 -14 31 1 -5 14 -3 15 14 6 14 -8 23 -8 31 0 7 7 12 8 12 2 0 -5 16 -10 35 -10 19 0 35 4 35 8 0 4 -4 8 -10 8 -5 0 -10 5 -10 10 0 6 7 10 15 10 8 0 15 5 15 11 0 6 -17 1 -37 -11 -31 -18 -39 -20 -48 -7 -5 7 -16 12 -22 10 -7 -3 -13 0 -13 6 0 6 -3 10 -7 10 -29 -5 -42 3 -38 21 2 13 0 18 -7 14 -13 -8 -28 15 -21 33 3 7 11 13 19 13 8 0 14 5 14 10 0 14 -23 13 -38 -2z"/>
<path d="M255 1142 c-5 -4 -11 -16 -13 -27 -2 -17 -1 -18 11 -5 7 8 19 21 27 28 12 10 12 12 0 12 -8 0 -19 -4 -25 -8z"/>
<path d="M328 1138 c16 -16 50 -20 58 -6 5 7 -1 9 -20 6 -14 -3 -26 -1 -26 3 0 5 -5 9 -12 9 -9 0 -9 -3 0 -12z"/>
<path d="M795 1140 c3 -5 8 -10 11 -10 2 0 4 5 4 10 0 6 -5 10 -11 10 -5 0 -7 -4 -4 -10z"/>
<path d="M920 1136 c-6 -8 -19 -12 -28 -9 -15 6 -15 5 -3 -10 11 -14 16 -15 25 -5 6 7 18 19 26 26 7 6 9 12 3 12 -6 0 -16 -6 -23 -14z"/>
<path d="M1462 1128 c18 -16 17 -17 -4 -24 -22 -7 -22 -7 -3 -15 33 -13 38 -10 33 16 -3 13 0 26 5 28 6 2 3 6 -7 10 -10 4 -15 3 -11 -3 7 -12 -7 -13 -21 -2 -5 4 -1 -1 8 -10z"/>
<path d="M1676 1133 c2 -6 -2 -14 -9 -17 -7 -3 -1 -3 13 0 14 3 34 6 46 6 25 2 28 24 3 24 -10 0 -15 -4 -13 -8 3 -4 -4 -8 -15 -8 -10 0 -21 3 -24 8 -2 4 -2 2 -1 -5z"/>
<path d="M1830 1140 c-9 -6 -10 -10 -3 -10 6 0 15 5 18 10 8 12 4 12 -15 0z"/>
<path d="M1934 1136 c11 -9 25 -16 30 -16 6 0 4 -5 -4 -10 -8 -5 -10 -10 -5 -10 6 1 19 7 29 15 19 14 11 21 -17 16 -4 -1 -18 4 -30 9 -21 11 -21 11 -3 -4z"/>
<path d="M290 1119 c-12 -9 -12 -10 4 -5 13 5 17 2 12 -9 -3 -8 -1 -15 3 -15 11 0 22 26 14 34 -9 8 -16 7 -33 -5z"/>
<path d="M400 1120 c0 -5 5 -10 11 -10 5 0 7 5 4 10 -3 6 -8 10 -11 10 -2 0 -4 -4 -4 -10z"/>
<path d="M438 1123 c7 -3 16 -2 19 1 4 3 -2 6 -13 5 -11 0 -14 -3 -6 -6z"/>
<path d="M835 1120 c-3 -5 1 -10 10 -10 9 0 13 5 10 10 -3 6 -8 10 -10 10 -2 0 -7 -4 -10 -10z"/>
<path d="M1012 1117 c-8 -10 -6 -13 7 -13 10 0 18 6 18 13 0 7 -4 13 -7 13 -4 0 -12 -6 -18 -13z"/>
<path d="M1370 1122 c0 -6 -7 -12 -16 -14 -13 -3 -13 -5 1 -23 9 -11 14 -14 10 -7 -4 7 -1 20 6 28 6 8 9 17 5 21 -3 3 -6 1 -6 -5z"/>
<path d="M1425 1120 c3 -5 11 -10 16 -10 6 0 7 5 4 10 -3 6 -11 10 -16 10 -6 0 -7 -4 -4 -10z"/>
<path d="M751 1110 c7 -5 5 -9 -6 -14 -23 -9 -27 -8 -19 5 8 13 -35 3 -50 -12 -23 -21 102 -1 126 20 4 3 -9 6 -28 7 -19 0 -30 -3 -23 -6z"/>
<path d="M976 1109 c5 -8 -1 -10 -19 -7 -15 3 -24 2 -22 -2 3 -4 15 -10 28 -12 17 -3 23 0 24 14 1 10 -3 18 -8 18 -6 0 -7 -5 -3 -11z"/>
<path d="M1764 1111 c7 -11 1 -12 -31 -6 -30 5 -40 3 -40 -7 0 -9 11 -12 34 -10 18 2 33 0 33 -6 0 -5 16 -6 40 -2 29 5 45 3 61 -8 16 -11 20 -12 14 -2 -6 10 -4 12 11 6 10 -4 33 -10 49 -13 17 -3 38 -10 48 -15 10 -5 17 -5 17 1 0 13 -31 24 -60 22 -20 -2 -22 0 -10 9 13 10 13 11 0 8 -8 -1 -26 4 -39 11 -14 8 -21 9 -17 2 4 -6 3 -11 -3 -11 -5 0 -12 3 -14 8 -3 4 -20 6 -39 6 -18 -1 -39 4 -47 10 -12 9 -13 8 -7 -3z"/>
<path d="M1910 1109 c0 -5 5 -7 10 -4 6 3 10 8 10 11 0 2 -4 4 -10 4 -5 0 -10 -5 -10 -11z"/>
<path d="M349 1108 c0 -2 -2 -16 -4 -33 -2 -16 -1 -22 2 -12 6 22 9 21 45 -4 16 -12 31 -19 34 -16 3 2 -11 15 -31 27 -19 12 -33 26 -29 31 3 5 0 9 -5 9 -6 0 -11 -1 -12 -2z"/>
<path d="M1080 1098 c0 -22 17 -41 24 -29 4 6 2 11 -4 11 -7 0 -10 7 -6 15 3 8 1 15 -4 15 -6 0 -10 -6 -10 -12z"/>
<path d="M1306 1101 c-4 -7 -5 -15 -2 -18 9 -9 19 4 14 18 -4 11 -6 11 -12 0z"/>
<path d="M211 1086 c-9 -10 -8 -15 3 -19 10 -4 14 0 13 14 -2 23 -1 23 -16 5z"/>
<path d="M270 1090 c0 -5 5 -10 11 -10 5 0 7 5 4 10 -3 6 -8 10 -11 10 -2 0 -4 -4 -4 -10z"/>
<path d="M787 1085 c-15 -8 -31 -14 -34 -14 -4 0 -8 -4 -9 -10 -2 -7 0 -7 2 -2 3 6 12 7 20 4 8 -3 14 0 14 6 0 6 9 11 20 11 11 0 20 5 20 10 0 13 0 13 -33 -5z"/>
<path d="M1173 1084 c-17 -14 -17 -14 4 -5 12 6 29 8 37 5 9 -3 16 -2 16 3 0 15 -37 13 -57 -3z"/>
<path d="M997 1076 c-6 -14 12 -26 39 -26 8 0 14 5 14 11 0 6 -9 8 -20 4 -11 -3 -20 -2 -20 4 0 5 10 12 23 14 20 4 19 4 -4 6 -15 0 -29 -5 -32 -13z"/>
<path d="M1389 1073 c-7 -10 -9 -15 -5 -11 5 4 16 2 25 -4 9 -7 13 -8 9 -4 -4 5 -3 15 3 23 9 10 8 13 -4 13 -8 0 -21 -8 -28 -17z"/>
<path d="M1 1065 c-1 -12 4 -26 11 -33 9 -9 9 -12 0 -12 -7 0 -12 -3 -12 -7 0 -5 42 -9 93 -11 131 -3 217 -2 217 5 0 1 -18 12 -40 23 -38 19 -42 19 -65 4 -17 -11 -29 -13 -38 -7 -6 6 -20 10 -29 10 -14 0 -15 -3 -6 -14 9 -11 7 -12 -8 -7 -10 4 -28 13 -39 21 -24 16 -39 17 -29 2 4 -7 -2 -9 -17 -7 -15 2 -26 12 -30 28 -6 21 -7 22 -8 5z m233 -50 c-4 -8 -14 -15 -23 -14 -10 0 -11 2 -3 6 6 2 10 9 6 14 -3 5 2 9 10 9 10 0 13 -6 10 -15z"/>
<path d="M246 1073 c-10 -10 -7 -25 4 -18 6 3 10 1 10 -5 0 -6 4 -9 9 -6 5 4 11 0 14 -6 3 -10 7 -10 19 -1 8 7 17 11 19 8 3 -2 5 5 5 15 0 27 -24 26 -28 -1 l-3 -20 -21 20 c-12 11 -25 17 -28 14z"/>
<path d="M548 1074 c-5 -4 -8 -15 -8 -25 0 -10 -8 -23 -17 -28 -14 -8 -15 -10 -3 -11 27 0 42 17 38 45 -2 15 -6 23 -10 19z"/>
<path d="M1445 1069 c-19 -7 -18 -10 4 -13 5 0 13 -4 17 -8 7 -7 -10 -12 -29 -9 -5 1 -6 -3 -2 -9 9 -15 -11 -12 -27 3 -17 17 -90 12 -104 -8 -6 -8 -17 -15 -25 -15 -12 0 -12 2 -1 9 11 7 10 10 -3 15 -26 10 -42 7 -25 -5 11 -7 7 -9 -18 -5 -17 2 -30 1 -27 -4 6 -9 -71 -4 -87 6 -7 4 -8 2 -4 -4 5 -8 -1 -12 -18 -12 -14 0 -27 -4 -30 -8 -3 -5 25 -8 62 -6 37 1 103 3 147 4 51 0 75 4 65 10 -8 5 -18 6 -22 4 -4 -3 -8 0 -8 5 0 6 16 11 36 11 31 0 35 -2 24 -15 -10 -12 -6 -13 27 -8 42 7 93 38 93 56 0 8 -4 7 -9 -2 -8 -12 -10 -11 -12 1 -3 11 -10 13 -24 7z"/>
<path d="M695 1060 c3 -5 12 -7 20 -3 21 7 19 13 -6 13 -11 0 -18 -4 -14 -10z"/>
<path d="M1206 1058 c3 -5 10 -6 15 -3 13 9 11 12 -6 12 -8 0 -12 -4 -9 -9z"/>
<path d="M1106 1052 c-3 -4 4 -9 15 -9 23 -2 25 3 4 10 -8 4 -16 3 -19 -1z"/>
<path d="M1152 1055 c3 -3 16 -8 28 -10 12 -2 20 -1 16 2 -4 4 -16 8 -28 10 -12 2 -19 1 -16 -2z"/>
<path d="M389 1037 c11 -14 25 -18 53 -15 21 2 39 -1 41 -6 2 -5 14 -2 27 7 22 16 20 22 -5 17 -38 -7 -102 -6 -115 4 -13 10 -13 9 -1 -7z"/>
<path d="M1918 1043 c7 -3 16 -2 19 1 4 3 -2 6 -13 5 -11 0 -14 -3 -6 -6z"/>
<path d="M1890 1024 c0 -10 -4 -15 -8 -9 -15 21 -61 8 -62 -17 0 -5 8 -8 18 -8 15 0 15 2 2 11 -11 8 -8 9 13 4 32 -7 147 4 147 14 0 4 -16 7 -35 8 -19 0 -35 -4 -35 -10 0 -5 -9 -2 -20 8 -19 17 -20 17 -20 -1z"/>
<path d="M344 1015 c23 -17 50 -20 41 -5 -4 6 -11 8 -16 5 -5 -4 -9 -1 -9 4 0 6 -8 11 -17 11 -16 -1 -16 -2 1 -15z"/>
<path d="M1563 1013 c-42 -8 -24 -21 26 -20 45 2 47 3 28 14 -12 7 -24 12 -27 11 -3 0 -15 -3 -27 -5z"/>
<path d="M1504 972 c-6 -4 -16 -17 -23 -30 -7 -12 -17 -20 -23 -16 -7 4 -8 3 -4 -4 5 -8 0 -12 -13 -12 -12 0 -21 -4 -21 -10 0 -6 -3 -9 -7 -7 -8 2 -13 -6 -13 -23 0 -6 6 -10 13 -9 18 3 67 -12 67 -21 0 -4 -8 -14 -19 -24 -14 -13 -24 -14 -45 -7 -33 13 -34 25 -1 19 14 -3 28 0 32 6 3 6 3 8 -1 4 -5 -4 -19 -3 -31 2 -15 6 -25 5 -27 -1 -2 -6 -19 -14 -38 -18 -19 -4 -46 -11 -59 -16 -17 -5 -22 -4 -19 6 2 7 17 14 33 16 16 2 36 9 44 14 12 7 9 8 -10 4 -14 -4 -34 -7 -44 -9 -10 -1 -25 -12 -33 -24 -13 -20 -13 -22 2 -22 10 0 15 -4 12 -8 -3 -5 1 -9 9 -9 8 0 15 6 15 14 0 16 16 17 26 1 4 -6 2 -14 -4 -16 -7 -2 -12 -10 -12 -18 0 -8 -7 -14 -16 -14 -9 0 -12 5 -8 13 5 7 1 6 -10 -2 -17 -14 -17 -16 -1 -27 14 -11 20 -10 34 3 9 9 15 18 14 20 -4 4 32 39 48 47 8 3 2 4 -13 1 -15 -3 -30 0 -33 6 -5 7 8 9 37 7 34 -2 42 -7 40 -20 -2 -15 1 -16 28 -7 23 8 34 8 45 -1 13 -10 11 -15 -8 -30 -26 -22 -35 -18 -16 7 13 16 12 17 -3 5 -26 -21 -19 -47 13 -47 15 0 31 3 35 8 4 4 0 7 -9 7 -22 0 -22 16 -1 24 10 4 22 -1 29 -11 8 -10 17 -15 21 -10 4 4 1 7 -7 7 -12 0 -12 2 0 9 13 8 28 0 66 -36 8 -7 19 -13 25 -13 6 0 9 -4 6 -9 -3 -4 7 -8 23 -7 34 1 38 26 4 26 -13 0 -22 4 -19 9 4 5 -2 7 -11 5 -23 -5 -48 10 -39 24 4 6 14 9 24 6 13 -5 14 -4 4 4 -11 7 -11 10 3 16 9 3 13 11 10 17 -5 7 -12 5 -23 -4 -15 -13 -21 -13 -47 -2 -17 8 -23 14 -14 14 9 1 22 8 29 16 7 8 27 19 44 24 22 7 25 9 10 10 -12 1 -33 -8 -48 -20 -14 -11 -26 -17 -26 -13 0 4 -8 0 -18 -9 -17 -15 -19 -15 -33 1 -7 9 -14 23 -15 30 -2 28 -5 31 -21 25 -11 -4 -14 -3 -9 5 5 8 2 10 -8 6 -9 -3 -16 -1 -16 5 0 6 23 22 52 35 47 22 54 22 74 9 15 -9 24 -11 29 -4 3 6 19 11 35 11 16 0 31 4 35 10 9 15 34 0 28 -18 -5 -12 -2 -14 13 -8 43 18 74 24 74 15 0 -5 -11 -11 -24 -15 -15 -3 -23 -11 -20 -19 4 -10 10 -9 25 6 11 11 25 17 31 13 8 -5 9 -1 5 12 -7 18 -6 18 7 2 7 -10 24 -18 37 -17 22 0 22 1 4 8 -19 8 -18 9 4 12 14 2 26 10 29 18 3 8 0 11 -6 7 -5 -3 -47 -6 -93 -5 -83 0 -169 -1 -241 -4 -34 -2 -36 -1 -21 16 17 18 16 22 -3 9z m-3 -179 c7 -7 7 -13 1 -17 -5 -3 -17 3 -27 13 -15 17 -15 19 -1 17 9 -1 21 -7 27 -13z m39 -23 c-20 -13 -33 -13 -25 0 3 6 14 10 23 10 15 0 15 -2 2 -10z"/>
<path d="M193 943 c-1 -19 1 -22 8 -12 8 12 12 11 24 -5 8 -11 15 -29 15 -40 0 -17 2 -18 10 -6 5 9 5 19 -1 26 -7 8 -6 15 2 20 8 5 9 3 5 -5 -9 -15 25 -11 36 3 3 5 15 11 27 13 14 2 19 -2 16 -15 -2 -12 3 -18 16 -19 16 -2 17 1 9 18 -9 16 -7 19 9 19 14 0 19 -5 15 -15 -4 -10 0 -15 15 -15 15 0 19 4 14 18 -5 13 -3 15 7 5 8 -7 19 -9 29 -4 9 5 25 6 36 4 11 -3 38 -5 60 -6 22 0 43 -6 47 -11 4 -6 8 0 8 13 0 21 -3 23 -30 17 -19 -3 -29 -2 -25 4 3 5 0 8 -7 5 -7 -2 -75 -6 -151 -8 -76 -2 -140 -7 -144 -11 -4 -3 -16 3 -27 13 -21 20 -21 20 -23 -6z"/>
<path d="M0 941 c0 -8 3 -11 6 -8 4 3 16 2 27 -4 11 -6 17 -7 13 -1 -3 6 12 8 41 4 30 -3 44 -1 40 5 -9 14 -47 23 -47 11 0 -5 -5 -6 -12 -2 -21 13 -68 10 -68 -5z"/>
<path d="M630 949 c-14 -4 -19 -7 -12 -8 23 -2 27 -3 45 -12 11 -6 17 -6 17 0 0 6 7 8 15 5 8 -4 13 -10 10 -15 -3 -4 3 -6 14 -4 16 3 30 -10 35 -35 4 -15 25 -43 26 -32 0 17 15 15 35 -4 15 -15 17 -15 22 5 6 23 28 28 36 9 3 -8 6 -6 6 5 1 9 6 17 12 17 5 0 7 -4 4 -10 -8 -12 5 -13 23 -1 11 6 10 10 -5 15 -15 7 -13 10 16 25 l34 18 -34 0 c-19 1 -28 -1 -21 -4 8 -3 4 -12 -14 -25 -21 -17 -30 -19 -50 -9 -15 7 -23 7 -19 1 3 -5 -3 -10 -14 -10 -11 0 -23 -5 -26 -10 -4 -6 -11 -8 -16 -4 -6 3 -5 12 3 22 11 13 11 14 -1 7 -10 -5 -12 -4 -7 4 4 6 11 9 16 6 5 -3 11 -1 14 4 4 6 18 6 36 1 18 -5 30 -5 30 1 0 5 -5 9 -12 9 -6 0 -8 3 -5 6 4 4 13 2 20 -5 11 -9 17 -8 27 4 16 19 121 18 113 -1 -2 -7 -10 -12 -16 -10 -7 1 -9 1 -4 -1 4 -3 5 -9 2 -14 -4 -5 1 -6 9 -3 9 3 16 12 16 19 0 8 8 11 20 8 27 -7 25 -33 -2 -33 -16 0 -19 -3 -10 -8 9 -6 6 -12 -12 -20 -14 -6 -26 -7 -28 -2 -2 6 -9 6 -18 0 -13 -8 -12 -10 3 -10 9 0 17 -4 17 -10 0 -5 -4 -10 -8 -10 -5 0 -9 -7 -9 -15 0 -8 4 -12 9 -9 9 6 11 -8 2 -30 -3 -9 -10 -13 -15 -10 -5 3 -6 10 -3 16 4 6 2 8 -4 4 -5 -3 -12 -3 -15 1 -2 5 -2 2 -1 -4 2 -7 -3 -13 -11 -13 -8 0 -15 -4 -15 -10 0 -13 17 -13 25 0 10 16 25 2 18 -16 -4 -12 -16 -15 -44 -12 -20 2 -37 1 -36 -2 1 -3 -4 -15 -11 -26 -12 -23 -42 -40 -42 -24 0 6 7 10 15 10 8 0 15 5 15 10 0 13 -2 13 -36 -5 -16 -8 -28 -18 -26 -22 2 -4 -5 -10 -15 -14 -17 -7 -17 -8 0 -8 9 -1 17 -8 17 -16 0 -8 -3 -14 -7 -14 -18 3 -34 -2 -30 -8 3 -5 -7 -17 -21 -27 -20 -15 -24 -16 -20 -4 5 11 0 14 -18 12 -14 -1 -31 -7 -38 -13 -7 -6 -17 -7 -21 -3 -5 4 -5 1 -1 -5 4 -7 2 -13 -3 -13 -23 0 -10 -15 14 -16 14 -1 25 2 25 8 0 5 4 6 10 3 6 -3 7 1 4 9 -11 29 24 12 53 -25 12 -14 5 -16 -72 -15 -47 0 -85 4 -85 8 0 5 5 8 10 8 6 0 10 5 10 10 0 7 -6 7 -17 1 -39 -21 -96 -34 -88 -21 2 3 -10 15 -27 25 -17 10 -28 13 -24 6 4 -6 2 -11 -3 -11 -6 0 -11 -7 -11 -15 0 -8 -4 -15 -9 -15 -4 0 -8 14 -7 31 1 29 3 30 32 26 17 -3 37 -1 45 5 10 7 7 7 -10 3 -20 -6 -23 -4 -18 9 9 24 -23 34 -38 13 -7 -10 -17 -17 -24 -17 -8 0 -8 -5 1 -19 16 -26 -5 -51 -41 -50 -14 0 -20 3 -13 6 6 2 12 9 12 14 0 5 -13 3 -29 -5 -26 -14 -30 -14 -42 1 -12 15 -11 16 9 11 12 -4 22 -2 22 4 0 6 -12 8 -30 4 -19 -3 -29 -2 -25 4 3 6 2 10 -3 10 -6 0 -12 -7 -16 -15 -3 -8 -10 -15 -16 -15 -6 0 -9 4 -5 9 3 6 -2 14 -11 19 -11 6 -14 14 -8 23 17 27 14 39 -7 26 -24 -15 -24 -22 2 -58 11 -16 17 -33 14 -39 -3 -5 -2 -10 4 -10 5 0 13 5 16 10 8 12 45 13 45 1 0 -5 127 -9 285 -10 281 -2 284 -2 280 19 -3 16 2 20 23 21 21 1 22 2 7 6 -32 8 -39 21 -8 16 24 -4 26 -3 10 7 -25 16 -47 5 -47 -22 0 -20 -5 -23 -38 -22 -54 2 -59 3 -42 14 8 5 22 7 32 4 9 -2 19 0 23 5 3 6 0 8 -9 5 -8 -3 -19 3 -25 14 -12 23 6 36 29 22 10 -6 9 -9 -1 -13 -10 -4 -9 -6 3 -6 26 -1 31 17 6 25 l-23 7 24 8 c26 10 45 3 35 -13 -4 -6 -1 -9 6 -6 8 2 16 10 18 18 3 7 0 10 -6 6 -6 -3 -13 -2 -17 3 -3 5 3 15 12 21 15 9 14 10 -7 4 -14 -3 -31 -12 -39 -18 -11 -8 -13 -8 -7 2 4 7 2 12 -5 12 -19 0 -5 10 21 15 13 3 28 9 33 14 5 5 17 7 26 4 14 -4 14 -3 1 6 -19 13 -6 25 33 28 51 4 54 6 53 22 -1 11 7 15 24 14 14 -1 18 0 8 3 -19 6 -25 24 -7 24 5 0 8 4 5 9 -11 17 22 20 36 4 11 -15 11 -16 -4 -10 -10 4 -18 2 -18 -4 0 -7 10 -9 25 -5 24 6 35 -7 15 -19 -5 -3 -7 -12 -3 -20 6 -18 -1 -19 -27 -5 -15 8 -22 6 -33 -10 -7 -11 -17 -17 -21 -13 -3 4 -12 -1 -19 -11 -7 -10 -18 -16 -24 -14 -6 2 -13 -1 -15 -7 -1 -5 11 -11 27 -13 20 -2 26 0 17 6 -10 7 -10 11 3 22 8 7 15 9 15 5 0 -5 8 -1 18 8 9 8 29 15 43 14 21 -2 26 -6 22 -22 -6 -27 -6 -36 3 -64 6 -20 4 -23 -9 -18 -10 4 -17 2 -17 -3 0 -6 4 -10 9 -10 5 0 11 -10 14 -22 7 -23 -10 -39 -45 -45 -21 -3 -24 12 -5 21 6 3 1 3 -12 0 -16 -4 -21 -3 -17 5 4 6 2 11 -3 11 -6 0 -11 -5 -11 -11 0 -6 -7 -8 -15 -5 -9 3 -18 -1 -22 -10 -4 -11 -14 -14 -34 -10 -16 3 -29 1 -29 -3 0 -21 141 -25 199 -6 22 7 22 9 16 103 -4 54 -6 114 -6 134 1 20 -3 40 -10 43 -8 6 -8 9 0 15 7 3 12 28 13 55 1 68 -11 74 -152 74 -97 0 -119 -2 -114 -10 6 -10 -49 -19 -75 -12 -11 3 -21 9 -21 13 0 11 -51 17 -80 9z m430 -79 c-6 -11 -8 -25 -5 -30 3 -5 1 -11 -5 -15 -6 -4 -8 -11 -5 -16 4 -5 2 -9 -4 -9 -5 0 -12 4 -15 9 -3 5 -15 7 -26 4 -28 -7 -24 8 7 31 23 17 26 17 20 3 -3 -9 -3 -17 1 -17 4 0 13 14 19 30 6 17 14 30 17 30 4 0 2 -9 -4 -20z m-226 -4 c-3 -9 -12 -12 -22 -9 -15 6 -9 11 25 22 1 1 0 -5 -3 -13z m-374 -260 c0 -11 -19 -15 -25 -6 -3 5 1 10 9 10 9 0 16 -2 16 -4z m300 -31 c0 -8 -7 -15 -15 -15 -9 0 -12 6 -9 15 4 8 10 15 15 15 5 0 9 -7 9 -15z m-99 -18 c-10 -9 -11 -8 -5 6 3 10 9 15 12 12 3 -3 0 -11 -7 -18z m-191 -27 c0 -5 -2 -10 -4 -10 -3 0 -8 5 -11 10 -3 6 -1 10 4 10 6 0 11 -4 11 -10z m505 0 c3 -5 1 -10 -4 -10 -6 0 -11 5 -11 10 0 6 2 10 4 10 3 0 8 -4 11 -10z"/>
<path d="M1395 951 c-2 -2 -33 -4 -68 -6 -35 -1 -69 -5 -75 -9 -6 -3 -12 -2 -14 3 -1 5 -12 3 -23 -6 -19 -15 -19 -15 5 -9 23 7 24 6 7 -7 -16 -14 -16 -15 5 -21 30 -8 6 -25 -26 -19 -13 3 -27 -1 -31 -8 -6 -9 -1 -10 19 -5 17 4 26 2 26 -5 0 -8 5 -7 16 2 9 8 22 14 28 14 31 2 72 20 84 37 13 18 38 26 27 8 -3 -5 -1 -10 4 -10 6 0 11 5 11 11 0 6 8 8 18 5 9 -3 27 2 39 12 l23 17 -36 0 c-20 0 -37 -2 -39 -4z m-81 -32 c-2 -4 1 -9 6 -11 6 -2 -3 -8 -19 -15 -23 -8 -34 -8 -47 2 -24 17 -11 31 30 31 19 0 33 -3 30 -7z"/>
<path d="M1890 950 c0 -5 7 -10 15 -10 8 0 15 5 15 10 0 6 -7 10 -15 10 -8 0 -15 -4 -15 -10z"/>
<path d="M1940 945 c-6 -8 -9 -18 -6 -23 3 -6 -1 -15 -9 -22 -22 -18 -18 -32 7 -25 17 6 20 4 15 -9 -5 -12 0 -11 23 6 27 19 45 68 20 53 -6 -4 -7 -11 -4 -17 4 -6 1 -14 -6 -18 -16 -10 -40 -2 -40 12 0 6 6 8 13 5 8 -3 12 5 12 24 1 32 -6 36 -25 14z"/>
<path d="M140 939 c0 -5 5 -7 10 -4 6 3 10 8 10 11 0 2 -4 4 -10 4 -5 0 -10 -5 -10 -11z"/>
<path d="M1171 931 c-6 -9 -9 -10 -5 -3 4 10 0 13 -17 10 -35 -5 -33 -23 3 -26 18 -2 36 -8 41 -15 5 -8 7 -5 5 8 -1 11 1 25 4 31 11 17 -18 12 -31 -5z"/>
<path d="M1655 930 c-5 -8 -10 -21 -12 -29 -1 -11 2 -11 14 2 8 8 13 21 11 28 -3 10 -6 10 -13 -1z"/>
<path d="M1860 920 c0 -5 12 -10 28 -10 21 0 24 2 12 10 -20 13 -40 13 -40 0z"/>
<path d="M60 905 c0 -17 -17 -20 -22 -5 -2 6 -11 4 -23 -5 -20 -16 -20 -16 3 -12 24 5 31 -10 9 -19 -8 -3 -14 -10 -14 -17 0 -8 20 -12 56 -13 l56 0 2 34 c2 28 -1 32 -12 22 -8 -6 -11 -18 -8 -27 4 -10 0 -14 -13 -12 -10 2 -24 1 -29 -3 -6 -4 -17 -3 -25 2 -11 7 -7 12 16 22 16 7 31 15 34 18 3 3 16 11 30 17 24 11 24 12 3 12 -12 1 -25 -3 -28 -9 -3 -5 -11 -10 -16 -10 -6 0 -7 5 -4 10 3 6 1 10 -4 10 -6 0 -11 -7 -11 -15z"/>
<path d="M283 890 l-23 -28 34 0 c23 0 37 6 41 17 5 13 4 14 -6 4 -18 -18 -34 -16 -19 2 8 10 9 19 4 24 -5 5 -19 -3 -31 -19z"/>
<path d="M473 903 c1 -18 4 -20 17 -10 25 19 26 20 8 14 -9 -3 -19 -1 -21 6 -3 7 -4 2 -4 -10z"/>
<path d="M535 910 c-3 -4 6 -10 20 -12 14 -3 25 -2 25 2 0 11 -39 20 -45 10z"/>
<path d="M614 908 c-4 -6 -3 -8 4 -4 6 3 19 -5 29 -18 14 -17 24 -22 34 -15 11 7 10 9 -5 9 -15 0 -17 3 -8 12 9 9 16 8 31 -6 17 -15 19 -15 25 -1 3 9 2 13 -4 10 -5 -3 -19 0 -30 7 -17 11 -22 11 -30 -2 -8 -12 -10 -12 -16 3 -7 20 -20 22 -30 5z"/>
<path d="M1495 900 c-10 -12 -13 -20 -7 -20 7 0 12 5 12 10 0 6 9 10 21 10 13 0 18 -4 13 -12 -5 -9 -2 -9 9 1 9 7 17 16 17 19 0 3 -3 2 -6 -1 -4 -3 -14 -2 -24 3 -13 7 -22 4 -35 -10z"/>
<path d="M1609 911 c8 -5 10 -14 6 -21 -5 -9 -4 -11 3 -6 18 11 14 36 -5 36 -14 0 -15 -2 -4 -9z"/>
<path d="M942 901 c-11 -7 -11 -9 0 -14 9 -3 15 1 15 9 0 8 -1 14 -1 14 -1 0 -7 -4 -14 -9z"/>
<path d="M1782 889 c-11 -17 -2 -17 73 5 6 2 -6 5 -26 7 -27 4 -40 0 -47 -12z"/>
<path d="M208 893 c7 -3 16 -2 19 1 4 3 -2 6 -13 5 -11 0 -14 -3 -6 -6z"/>
<path d="M364 883 c-10 -7 -15 -15 -12 -18 3 -3 13 1 22 10 14 14 16 14 16 2 0 -9 6 -17 13 -20 6 -2 9 -8 5 -12 -4 -4 -14 -2 -23 5 -8 7 -15 8 -15 2 0 -5 7 -15 15 -22 11 -9 12 -17 5 -30 -13 -24 -13 -40 0 -20 6 10 10 11 10 3 0 -7 4 -13 9 -13 9 0 9 11 -1 49 -2 10 7 14 32 14 19 0 43 9 54 19 18 17 21 17 38 1 10 -9 18 -13 18 -8 0 7 -39 45 -47 45 -2 0 -2 -4 2 -9 3 -6 -3 -15 -14 -20 -26 -14 -34 -14 -25 1 4 7 3 8 -5 4 -6 -4 -9 -12 -6 -17 4 -5 -3 -9 -14 -9 -14 0 -21 6 -21 20 0 11 -5 20 -12 20 -6 0 -8 3 -5 6 4 4 13 2 20 -4 10 -9 14 -8 14 3 0 18 -47 17 -73 -2z"/>
<path d="M597 889 c7 -7 15 -10 18 -7 3 3 -2 9 -12 12 -14 6 -15 5 -6 -5z"/>
<path d="M1117 882 c3 -7 12 -11 21 -7 11 4 12 2 4 -7 -14 -18 -23 -96 -11 -104 6 -3 5 -11 -2 -20 -9 -11 -9 -21 0 -42 9 -18 9 -28 2 -30 -6 -2 -8 -9 -4 -15 10 -16 3 -100 -9 -114 -6 -7 -14 -10 -19 -7 -5 3 -9 0 -9 -5 0 -6 7 -11 15 -11 8 0 15 5 15 10 0 6 7 10 15 10 8 0 15 -4 15 -10 0 -5 7 -10 15 -10 8 0 15 5 15 10 0 6 -6 10 -14 10 -28 0 -28 33 0 57 32 28 43 29 39 6 -2 -10 -4 -20 -4 -23 -1 -3 -5 1 -9 8 -7 10 -12 8 -26 -7 -15 -16 -15 -19 -1 -24 8 -4 15 -2 15 3 0 6 4 10 9 10 5 0 8 -10 5 -23 l-4 -23 134 -2 c73 -1 138 -2 142 -3 5 -1 28 -1 51 0 33 1 41 4 37 16 -4 8 -10 15 -16 15 -5 0 -6 -6 -2 -12 6 -10 4 -10 -8 0 -10 8 -19 9 -22 3 -6 -10 -43 -7 -54 4 -3 3 3 12 14 20 18 14 18 14 -4 15 -15 0 -21 -4 -16 -12 5 -8 2 -9 -9 -5 -9 3 -19 1 -23 -4 -3 -6 -15 -9 -25 -6 -11 3 -16 1 -13 -4 3 -5 -5 -7 -18 -5 -13 3 -47 5 -76 5 -31 1 -51 5 -47 11 3 5 11 8 18 6 7 -1 9 -1 5 1 -4 2 -4 11 -1 20 4 9 2 14 -3 11 -5 -3 -18 -2 -29 3 -18 7 -18 8 5 9 14 1 32 2 42 1 9 -1 19 2 22 8 4 6 18 6 37 1 26 -8 29 -7 19 5 -12 15 -36 14 -74 -1 -11 -4 -17 -4 -14 2 10 15 -18 45 -36 38 -9 -3 -14 -9 -11 -14 2 -4 -6 -13 -19 -20 -18 -9 -29 -9 -42 -1 -11 6 -14 11 -6 11 7 0 10 5 7 10 -3 6 -3 10 2 11 23 2 49 9 68 18 11 5 29 12 40 14 13 3 9 5 -11 6 -17 0 -34 -2 -38 -6 -4 -5 -21 -8 -37 -8 -26 0 -27 1 -12 12 13 10 18 10 24 1 5 -7 11 -9 15 -5 8 8 -24 36 -41 37 -5 0 -4 -4 3 -9 10 -6 9 -10 -7 -14 -12 -3 -19 -1 -15 4 3 5 1 9 -5 9 -16 0 -1 28 17 33 14 4 14 5 -2 6 -15 1 -16 4 -6 16 14 17 4 39 -13 28 -7 -4 -6 0 2 10 7 9 22 17 33 17 17 0 18 -2 8 -15 -11 -13 -10 -14 4 -9 10 4 15 12 12 19 -2 7 1 18 7 25 10 10 8 10 -10 1 -12 -6 -29 -8 -38 -5 -14 6 -14 9 5 29 l22 23 -35 -1 c-25 -1 -33 -5 -30 -15z m134 -247 c0 -6 -10 -12 -23 -13 -19 -4 -20 -2 -9 12 15 17 33 18 32 1z m-11 -55 c0 -8 -22 -30 -31 -30 -4 0 -5 8 -2 18 4 17 33 27 33 12z m200 -40 c0 -5 -4 -10 -9 -10 -6 0 -13 5 -16 10 -3 6 1 10 9 10 9 0 16 -4 16 -10z"/>
<path d="M1570 883 c0 -10 4 -14 8 -8 4 6 11 13 16 18 5 4 2 7 -7 7 -10 0 -17 -8 -17 -17z"/>
<path d="M1890 891 c0 -7 -5 -9 -12 -5 -7 5 -8 3 -3 -6 6 -10 1 -12 -18 -8 -15 3 -24 1 -21 -3 3 -5 0 -9 -5 -9 -6 0 -11 -7 -11 -16 0 -13 -8 -15 -34 -12 -19 2 -32 0 -30 -4 7 -11 56 -10 74 2 8 5 11 10 5 10 -15 0 18 20 34 20 11 0 11 -3 1 -15 -7 -9 -10 -18 -7 -21 3 -3 10 4 17 15 6 12 8 21 4 21 -3 0 -1 7 6 15 7 9 10 18 6 22 -3 3 -6 1 -6 -6z"/>
<path d="M1328 883 c-10 -3 -18 -9 -18 -14 0 -5 -7 -9 -17 -9 -9 0 -14 -3 -10 -6 3 -4 14 -3 24 1 25 11 46 12 60 2 6 -5 14 -3 19 5 4 7 3 10 -1 5 -5 -4 -15 -1 -24 6 -9 8 -24 12 -33 10z"/>
<path d="M1664 858 c1 -20 3 -36 6 -35 3 1 6 -2 7 -8 1 -5 -7 -10 -17 -9 -19 1 -19 -1 -3 -18 9 -10 18 -18 21 -18 3 0 2 3 -1 7 -12 11 13 31 32 26 10 -3 22 1 26 7 5 9 2 10 -12 6 -13 -4 -25 0 -34 10 -11 14 -11 18 6 30 18 14 18 14 -2 14 -12 0 -23 6 -26 13 -2 6 -3 -5 -3 -25z"/>
<path d="M186 871 c-9 -13 6 -49 22 -56 8 -3 20 0 26 6 8 9 8 10 -1 5 -9 -5 -12 1 -9 21 2 22 -1 29 -15 30 -10 1 -21 -2 -23 -6z m28 -17 c5 -14 4 -15 -9 -4 -17 14 -19 20 -6 20 5 0 12 -7 15 -16z"/>
<path d="M1517 859 c7 -7 15 -10 18 -7 3 3 -2 9 -12 12 -14 6 -15 5 -6 -5z"/>
<path d="M598 846 c-27 -20 -22 -29 6 -11 15 10 26 12 30 6 4 -5 -1 -14 -10 -19 -14 -8 -11 -9 12 -9 16 0 23 2 16 4 -10 4 -10 8 -1 19 7 9 8 14 1 14 -6 0 -16 2 -24 5 -7 2 -21 -2 -30 -9z"/>
<path d="M715 850 c3 -6 0 -10 -7 -10 -7 -1 2 -7 21 -15 22 -10 31 -20 28 -30 -4 -8 -2 -17 4 -21 6 -4 5 -12 -3 -22 -12 -15 -11 -16 5 -3 12 10 15 17 8 24 -7 7 -7 15 0 24 8 9 8 13 0 13 -6 0 -11 7 -11 16 0 8 -4 12 -10 9 -5 -3 -10 -2 -10 3 0 6 -7 13 -16 16 -8 3 -12 2 -9 -4z"/>
<path d="M910 849 c0 -5 5 -7 10 -4 6 3 10 8 10 11 0 2 -4 4 -10 4 -5 0 -10 -5 -10 -11z"/>
<path d="M1252 848 c2 -8 -6 -13 -19 -12 -12 0 -20 -3 -17 -8 8 -13 30 -9 43 6 8 10 9 16 1 21 -6 4 -9 1 -8 -7z"/>
<path d="M1758 853 c7 -3 16 -2 19 1 4 3 -2 6 -13 5 -11 0 -14 -3 -6 -6z"/>
<path d="M1795 850 c3 -5 8 -10 11 -10 2 0 4 5 4 10 0 6 -5 10 -11 10 -5 0 -7 -4 -4 -10z"/>
<path d="M1985 850 c3 -5 8 -10 11 -10 2 0 4 5 4 10 0 6 -5 10 -11 10 -5 0 -7 -4 -4 -10z"/>
<path d="M297 843 c-4 -3 -7 -11 -7 -17 0 -6 5 -5 12 2 6 6 9 14 7 17 -3 3 -9 2 -12 -2z"/>
<path d="M352 835 c2 -13 -4 -20 -17 -23 -48 -7 -65 -13 -65 -21 0 -5 14 -7 31 -4 41 6 67 -3 51 -19 -15 -15 -15 -29 -1 -25 6 1 14 -4 16 -10 3 -8 -4 -13 -15 -13 -11 0 -22 -7 -26 -15 -4 -13 -2 -13 14 -5 24 13 40 13 40 0 0 -5 -5 -9 -11 -7 -6 1 -14 -4 -16 -11 -4 -10 1 -10 21 -1 28 13 33 24 14 32 -10 4 -9 8 2 16 13 9 12 11 -3 11 -11 0 -15 4 -11 12 5 7 3 8 -6 3 -9 -6 -12 -4 -8 7 4 8 2 21 -2 29 -5 7 -5 18 0 24 5 6 5 17 -1 25 -8 12 -9 11 -7 -5z"/>
<path d="M503 843 c-22 -8 -14 -19 15 -20 15 0 19 1 9 4 -9 2 -15 9 -12 14 7 10 6 10 -12 2z"/>
<path d="M253 819 c-2 -23 3 -25 10 -4 4 8 3 16 -1 19 -4 3 -9 -4 -9 -15z"/>
<path d="M823 822 c-34 -16 -49 -37 -32 -47 5 -4 8 -1 7 6 -2 6 2 13 8 16 7 2 11 -4 10 -14 0 -10 4 -18 11 -18 6 0 15 -3 19 -7 4 -4 13 0 20 10 9 11 13 13 14 4 0 -16 20 -6 20 10 0 6 -3 8 -7 5 -3 -4 -12 -2 -20 4 -10 9 -13 8 -13 -4 0 -10 -8 -15 -20 -14 -11 1 -20 4 -20 7 1 12 28 40 39 40 6 0 11 5 11 10 0 12 -7 11 -47 -8z"/>
<path d="M1930 830 c0 -7 -8 -10 -20 -7 -11 3 -18 1 -14 -4 3 -5 -7 -9 -23 -10 -15 0 -21 -3 -13 -6 8 -2 22 -7 30 -10 8 -3 25 -5 38 -4 12 1 22 -3 22 -9 0 -6 5 -8 11 -5 16 10 -21 33 -45 28 -21 -4 -21 -4 -1 6 12 5 35 7 53 5 18 -2 32 0 32 5 0 4 -10 7 -22 7 -13 -1 -29 2 -35 7 -9 6 -13 5 -13 -3z"/>
<path d="M54 819 c-3 -5 6 -9 20 -9 31 0 34 6 6 13 -11 3 -23 1 -26 -4z"/>
<path d="M110 802 c-14 -10 -26 -23 -28 -31 -3 -12 -1 -12 14 0 16 13 17 12 10 -13 -5 -21 -3 -28 9 -28 10 0 14 8 11 23 -2 12 0 32 5 45 5 12 7 22 6 21 -1 0 -13 -8 -27 -17z"/>
<path d="M454 808 c2 -7 16 -13 33 -13 17 -1 38 -6 46 -14 18 -14 12 -41 -9 -41 -8 0 -17 -7 -20 -15 -7 -16 -34 -21 -34 -6 0 16 -39 -1 -45 -19 -3 -10 -14 -20 -23 -22 -11 -3 -7 -6 11 -10 21 -4 27 -2 23 8 -8 21 21 39 37 22 7 -7 12 -18 10 -24 -5 -16 74 -35 80 -20 3 8 -5 11 -27 8 -21 -2 -27 -1 -17 6 9 7 10 12 2 16 -6 4 -11 2 -11 -3 0 -6 -4 -11 -9 -11 -5 0 -8 6 -7 13 3 23 18 38 32 33 8 -3 14 -1 14 4 0 5 9 7 20 5 12 -2 18 0 15 6 -4 5 -11 6 -17 3 -7 -4 -8 -2 -4 4 4 6 14 8 24 5 9 -4 -1 10 -23 31 -30 29 -46 37 -67 34 -15 -3 -30 -1 -32 4 -2 5 -3 3 -2 -4z"/>
<path d="M1590 804 c0 -8 5 -12 10 -9 6 3 10 10 10 16 0 5 -4 9 -10 9 -5 0 -10 -7 -10 -16z"/>
<path d="M540 806 c0 -2 7 -9 15 -16 9 -7 15 -8 15 -2 0 5 -7 12 -15 16 -8 3 -15 4 -15 2z"/>
<path d="M706 794 c-11 -7 -16 -17 -11 -21 4 -5 10 -2 12 5 3 6 9 10 13 7 5 -3 11 -1 14 4 11 17 -8 20 -28 5z"/>
<path d="M905 800 c3 -5 8 -10 11 -10 2 0 4 5 4 10 0 6 -5 10 -11 10 -5 0 -7 -4 -4 -10z"/>
<path d="M1206 795 c-18 -14 -18 -15 -2 -15 9 0 14 -4 11 -10 -7 -12 2 -12 30 0 19 8 19 9 -2 9 -13 1 -23 6 -23 12 0 5 5 7 10 4 6 -3 10 -1 10 4 0 15 -11 13 -34 -4z"/>
<path d="M18 793 c7 -3 16 -2 19 1 4 3 -2 6 -13 5 -11 0 -14 -3 -6 -6z"/>
<path d="M225 790 c3 -5 11 -10 16 -10 6 0 7 5 4 10 -3 6 -11 10 -16 10 -6 0 -7 -4 -4 -10z"/>
<path d="M580 792 c0 -4 11 -9 26 -10 14 -1 23 2 19 8 -7 12 -45 14 -45 2z"/>
<path d="M1746 792 c-4 -7 -16 -10 -26 -7 -10 3 -21 1 -25 -4 -3 -7 0 -8 9 -5 9 3 16 2 16 -4 0 -6 -6 -12 -12 -15 -7 -3 -3 -4 9 -4 12 1 19 5 17 9 -7 11 28 10 46 -2 13 -9 13 -10 0 -11 -11 0 -9 -3 4 -8 23 -9 76 -2 76 10 0 5 7 9 15 9 8 0 15 5 15 10 0 16 -30 12 -36 -5 -4 -8 -16 -15 -28 -15 -18 0 -19 2 -6 11 13 9 12 10 -2 5 -24 -7 -50 3 -41 17 3 5 1 7 -5 3 -5 -3 -12 -1 -14 6 -3 9 -6 9 -12 0z"/>
<path d="M1825 790 c-3 -5 1 -10 10 -10 9 0 13 5 10 10 -3 6 -8 10 -10 10 -2 0 -7 -4 -10 -10z"/>
<path d="M640 775 c0 -8 4 -15 10 -15 5 0 7 7 4 15 -4 8 -8 15 -10 15 -2 0 -4 -7 -4 -15z"/>
<path d="M187 764 c-14 -51 -15 -70 -7 -84 6 -9 13 -11 18 -5 4 6 16 17 26 25 18 14 19 13 14 -2 -8 -19 22 -35 33 -17 4 6 12 8 19 4 9 -6 9 -9 -1 -16 -8 -5 -9 -9 -4 -9 28 0 35 17 15 38 -24 25 -26 36 -5 28 18 -6 21 19 3 30 -7 4 -8 3 -4 -4 4 -7 1 -12 -8 -12 -8 0 -17 6 -19 13 -3 6 -6 3 -6 -8 -1 -12 4 -26 9 -31 8 -8 6 -14 -3 -23 -12 -9 -16 -7 -21 14 -4 14 -11 25 -17 25 -6 0 -7 -4 -4 -10 3 -6 -4 -10 -17 -9 -13 0 -17 3 -10 6 6 2 12 11 12 19 0 8 7 14 15 14 8 0 15 5 15 11 0 6 -6 9 -14 6 -7 -3 -18 -1 -24 5 -7 7 -12 4 -15 -8z"/>
<path d="M477 767 c3 -5 -1 -8 -8 -6 -32 4 -49 -2 -49 -16 0 -13 4 -14 20 -5 11 6 25 8 30 5 5 -3 22 1 37 9 30 17 30 17 -9 20 -14 1 -24 -2 -21 -7z"/>
<path d="M593 749 c4 -24 24 -45 34 -35 4 4 1 12 -7 17 -11 8 -8 9 13 6 15 -2 30 0 33 5 3 5 21 6 40 2 28 -5 34 -3 34 11 0 13 -6 15 -32 10 -18 -4 -37 -11 -42 -16 -5 -4 -24 -2 -42 6 -32 13 -34 13 -31 -6z"/>
<path d="M0 756 c0 -2 11 -6 25 -8 13 -3 22 -1 19 3 -5 9 -44 13 -44 5z"/>
<path d="M1180 750 c0 -5 5 -10 10 -10 6 0 10 5 10 10 0 6 -4 10 -10 10 -5 0 -10 -4 -10 -10z"/>
<path d="M1365 749 c-64 -53 -88 -78 -72 -79 9 0 16 6 15 12 -2 7 21 24 50 38 28 14 52 29 52 34 0 4 -6 3 -14 -3 -8 -7 -16 -8 -18 -3 -1 5 -7 6 -13 1z"/>
<path d="M1667 754 c7 -3 9 -12 6 -20 -5 -14 8 -20 20 -8 10 11 -5 34 -22 33 -9 0 -11 -3 -4 -5z"/>
<path d="M1905 750 c-7 -11 35 -31 48 -23 9 5 -17 33 -32 33 -5 0 -13 -5 -16 -10z"/>
<path d="M60 740 c0 -5 -7 -16 -16 -24 -8 -9 -11 -16 -5 -16 5 0 14 6 18 14 4 7 15 15 22 18 12 3 12 6 -2 11 -9 3 -17 2 -17 -3z"/>
<path d="M1225 740 c3 -5 8 -10 11 -10 2 0 4 5 4 10 0 6 -5 10 -11 10 -5 0 -7 -4 -4 -10z"/>
<path d="M777 720 c-10 -12 -22 -18 -27 -15 -6 3 -10 1 -10 -5 0 -7 -7 -5 -16 4 -20 20 -78 21 -94 1 -10 -12 -9 -15 4 -15 10 0 14 5 11 10 -4 6 7 10 25 10 40 0 30 -17 -15 -26 -44 -8 -53 -31 -14 -36 18 -3 29 0 29 7 0 7 8 19 18 28 20 18 37 23 27 8 -5 -10 40 -5 57 5 8 5 31 44 26 44 -2 0 -11 -9 -21 -20z m-112 -50 c-3 -5 -14 -10 -23 -9 -14 0 -13 2 3 9 27 11 27 11 20 0z"/>
<path d="M813 725 c0 -8 4 -12 9 -9 5 3 6 10 3 15 -9 13 -12 11 -12 -6z"/>
<path d="M1964 723 c-10 -16 -16 -16 -43 -6 -32 12 -45 1 -13 -12 32 -14 47 -11 70 12 13 14 17 23 10 23 -7 0 -18 -8 -24 -17z"/>
<path d="M1820 721 c0 -5 -8 -12 -17 -14 -10 -2 -2 -2 17 0 26 3 31 1 20 -6 -9 -7 -10 -11 -3 -11 22 0 24 19 3 30 -12 6 -20 7 -20 1z"/>
<path d="M94 708 c-4 -7 -3 -8 4 -4 7 4 12 3 12 -3 0 -14 -32 -29 -50 -24 -10 3 -9 0 3 -7 9 -6 21 -9 26 -5 5 3 12 1 16 -5 3 -5 2 -10 -3 -10 -6 0 -13 -7 -16 -16 -3 -8 -2 -12 4 -9 13 8 13 -8 -2 -40 -6 -14 -23 -28 -37 -32 -14 -3 -33 -13 -41 -22 -13 -13 -13 -14 3 -8 10 4 34 7 52 7 27 0 35 5 42 28 6 15 9 42 7 60 -1 19 2 32 9 32 7 0 4 7 -6 14 -17 13 -16 14 3 19 11 3 20 10 20 17 0 6 -4 8 -10 5 -5 -3 -10 -1 -10 4 0 15 -17 14 -26 -1z"/>
<path d="M1368 698 c8 -8 3 -15 -21 -28 -18 -10 -37 -15 -43 -13 -7 2 -15 0 -18 -5 -7 -12 36 -7 62 7 11 6 30 11 41 11 20 0 20 1 4 20 -10 11 -22 20 -27 20 -6 0 -5 -5 2 -12z"/>
<path d="M1450 699 c0 -5 5 -7 10 -4 6 3 10 8 10 11 0 2 -4 4 -10 4 -5 0 -10 -5 -10 -11z"/>
<path d="M1700 700 c-9 -6 -10 -10 -3 -10 6 0 15 5 18 10 8 12 4 12 -15 0z"/>
<path d="M1755 700 c-3 -5 -1 -10 4 -10 6 0 11 5 11 10 0 6 -2 10 -4 10 -3 0 -8 -4 -11 -10z"/>
<path d="M560 690 c-24 -8 -24 -8 7 -9 17 -1 35 4 38 9 7 11 -9 11 -45 0z"/>
<path d="M1005 689 c-3 -4 2 -6 10 -5 21 3 28 13 10 13 -9 0 -18 -4 -20 -8z"/>
<path d="M1330 689 c0 -5 5 -7 10 -4 6 3 10 8 10 11 0 2 -4 4 -10 4 -5 0 -10 -5 -10 -11z"/>
<path d="M1553 683 c0 -17 5 -16 23 1 12 13 12 15 -4 13 -10 0 -19 -7 -19 -14z"/>
<path d="M1861 687 c-8 -8 -7 -15 2 -25 10 -13 8 -14 -13 -8 l-25 6 23 -12 c19 -9 25 -9 32 2 5 8 6 18 4 22 -3 4 -1 8 5 8 6 0 17 -13 26 -30 14 -27 14 -30 -1 -30 -10 0 -14 5 -10 15 3 8 1 15 -5 15 -7 0 -8 -11 -4 -29 5 -26 1 -35 -35 -70 -41 -40 -41 -40 -13 -37 15 2 52 4 81 5 31 1 52 5 52 12 0 8 -18 10 -55 7 -31 -3 -51 -2 -45 2 7 4 11 11 11 16 -1 5 13 9 30 10 16 1 35 7 42 14 10 10 8 10 -10 1 -15 -7 -24 -8 -28 -1 -4 6 -12 7 -18 4 -7 -4 1 7 17 24 17 18 24 32 17 32 -7 0 -11 6 -8 14 7 18 -56 49 -72 33z"/>
<path d="M6 674 c-9 -25 -2 -26 17 -4 13 16 14 20 3 20 -8 0 -17 -7 -20 -16z"/>
<path d="M1475 669 c-22 -14 -25 -19 -12 -19 10 0 20 -6 23 -14 7 -17 54 -9 54 10 0 17 -17 18 -23 2 -3 -10 -8 -10 -18 1 -8 8 -9 11 -4 8 6 -3 11 3 11 14 0 10 0 19 -1 18 0 0 -13 -9 -30 -20z"/>
<path d="M1785 680 c-16 -7 -17 -9 -3 -9 9 -1 20 4 23 9 7 11 7 11 -20 0z"/>
<path d="M1970 675 c-9 -10 -9 -15 -1 -15 6 0 11 5 11 11 0 5 5 7 12 3 7 -4 8 -3 4 4 -9 15 -11 15 -26 -3z"/>
<path d="M455 670 c-3 -5 -1 -10 4 -10 6 0 11 5 11 10 0 6 -2 10 -4 10 -3 0 -8 -4 -11 -10z"/>
<path d="M970 669 c0 -5 5 -7 10 -4 6 3 10 8 10 11 0 2 -4 4 -10 4 -5 0 -10 -5 -10 -11z"/>
<path d="M1724 668 c9 -5 14 -13 11 -19 -8 -12 6 -11 25 1 11 7 11 10 2 10 -7 0 -11 4 -8 9 3 5 -6 9 -21 9 -21 0 -23 -2 -9 -10z"/>
<path d="M188 659 c-17 -10 -14 -39 4 -39 6 0 8 6 5 14 -7 17 16 28 38 20 8 -4 15 -1 15 5 0 14 -39 14 -62 0z"/>
<path d="M725 659 c3 -3 -5 -9 -17 -12 -12 -4 -20 -9 -16 -12 6 -7 58 15 58 25 0 4 -7 7 -15 7 -8 0 -12 -4 -10 -8z"/>
<path d="M1016 663 c-8 -8 -27 -13 -78 -20 -28 -4 -38 -1 -38 8 0 11 -3 11 -10 -1 -5 -8 -7 -23 -4 -32 3 -11 0 -18 -7 -18 -7 0 -9 -3 -6 -6 4 -4 13 -2 20 5 8 6 21 9 29 6 8 -3 21 1 28 9 7 9 17 13 23 9 6 -3 7 -1 3 5 -4 8 0 12 11 12 22 0 50 17 42 24 -3 4 -9 3 -13 -1z m-76 -43 c0 -12 -8 -12 -35 0 -18 8 -17 9 8 9 15 1 27 -3 27 -9z"/>
<path d="M1670 646 c-12 -19 -12 -20 3 -7 14 11 20 11 32 1 8 -7 15 -8 15 -4 0 5 -8 14 -18 21 -15 9 -21 7 -32 -11z"/>
<path d="M292 645 c-19 -10 -20 -14 -8 -18 9 -4 16 -2 16 3 0 6 4 10 10 10 5 0 7 -8 3 -17 -5 -17 -5 -17 12 -1 9 9 14 21 11 27 -9 13 -14 13 -44 -4z"/>
<path d="M380 650 c0 -5 5 -10 10 -10 6 0 10 5 10 10 0 6 -4 10 -10 10 -5 0 -10 -4 -10 -10z"/>
<path d="M1414 643 c20 -24 46 -31 46 -12 0 5 -5 7 -11 4 -5 -4 -20 1 -32 12 l-22 18 19 -22z"/>
<path d="M1640 649 c0 -5 5 -7 10 -4 6 3 10 8 10 11 0 2 -4 4 -10 4 -5 0 -10 -5 -10 -11z"/>
<path d="M1800 650 c12 -8 11 -10 -7 -10 -12 0 -25 -5 -28 -10 -4 -6 -10 -8 -15 -5 -5 3 -11 1 -15 -5 -9 -15 18 -12 53 6 35 17 42 34 15 34 -15 0 -16 -2 -3 -10z"/>
<path d="M1992 640 c0 -14 2 -19 5 -12 2 6 2 18 0 25 -3 6 -5 1 -5 -13z"/>
<path d="M404 635 c-4 -8 -10 -12 -15 -9 -9 5 -33 -45 -25 -53 2 -3 7 5 11 16 3 11 14 23 25 26 20 6 36 35 19 35 -5 0 -12 -7 -15 -15z"/>
<path d="M445 640 c-3 -5 3 -10 14 -10 12 0 21 5 21 10 0 6 -6 10 -14 10 -8 0 -18 -4 -21 -10z"/>
<path d="M236 624 c-3 -9 -6 -17 -6 -20 0 -7 62 -36 67 -31 2 3 -9 11 -26 18 -16 7 -27 17 -25 21 3 5 11 5 17 1 7 -4 6 0 -2 10 -17 21 -17 21 -25 1z"/>
<path d="M495 630 c4 -6 11 -8 16 -5 14 9 11 15 -7 15 -8 0 -12 -5 -9 -10z"/>
<path d="M524 614 c-18 -14 -18 -15 4 -4 12 6 22 13 22 15 0 8 -5 6 -26 -11z"/>
<path d="M600 620 c-8 -5 -11 -10 -6 -10 6 0 1 -7 -10 -15 -18 -14 -18 -14 3 -9 11 3 23 14 26 25 3 10 4 19 4 19 -1 0 -9 -5 -17 -10z"/>
<path d="M630 626 c0 -7 40 -14 44 -7 3 4 -6 8 -20 9 -13 1 -24 0 -24 -2z"/>
<path d="M1005 621 c3 -5 -7 -11 -22 -13 l-28 -3 31 -6 c24 -4 30 -1 31 13 1 10 -3 18 -8 18 -6 0 -8 -4 -4 -9z"/>
<path d="M1370 620 c0 -5 5 -10 10 -10 6 0 10 5 10 10 0 6 -4 10 -10 10 -5 0 -10 -4 -10 -10z"/>
<path d="M1840 618 c0 -11 12 -10 30 2 12 7 10 9 -8 7 -12 0 -22 -5 -22 -9z"/>
<path d="M32 598 c-18 -11 -31 -22 -29 -24 8 -8 78 27 72 36 -3 6 -7 10 -8 9 -1 0 -17 -10 -35 -21z"/>
<path d="M1570 608 c0 -11 48 -10 54 1 3 4 -8 8 -24 7 -17 -1 -30 -4 -30 -8z"/>
<path d="M1651 596 c0 -12 3 -16 5 -9 3 7 11 11 17 9 7 -1 9 -1 4 1 -4 3 -5 8 -3 12 3 4 -1 8 -9 8 -9 0 -15 -9 -14 -21z"/>
<path d="M1701 604 c9 -9 25 -14 35 -12 14 3 10 7 -16 16 -32 12 -34 11 -19 -4z"/>
<path d="M1813 606 c4 -10 2 -16 -6 -15 -31 4 -45 -3 -52 -23 -4 -13 -7 -26 -6 -30 2 -13 -13 -9 -38 9 -14 9 -21 11 -17 5 3 -6 2 -13 -3 -16 -5 -3 -11 4 -14 15 -4 14 -11 20 -21 16 -8 -3 -16 -2 -18 2 -2 5 -12 5 -23 0 -19 -7 -19 -8 3 -8 12 -1 22 -6 22 -12 0 -8 4 -8 13 0 10 8 14 7 14 -4 0 -8 -6 -16 -14 -19 -7 -3 -13 -1 -13 3 0 5 -16 8 -35 7 -29 -3 -33 -1 -26 13 11 22 3 41 -17 41 -11 0 -13 -3 -6 -8 6 -4 10 -15 8 -26 -6 -42 2 -45 121 -42 124 4 143 9 123 34 -10 12 -10 14 -1 8 7 -4 21 -2 30 4 15 8 13 9 -12 6 -16 -2 -34 -5 -38 -5 -5 -1 -6 -5 -3 -10 3 -5 -1 -12 -9 -15 -12 -4 -13 -2 -6 13 6 10 7 22 3 26 -4 5 -2 6 3 3 6 -3 25 0 43 6 32 11 32 11 11 25 -19 11 -21 11 -16 -3z"/>
<path d="M330 591 c0 -11 4 -22 9 -25 4 -3 6 6 3 19 -5 30 -12 33 -12 6z"/>
<path d="M527 581 c-16 -16 -24 -31 -19 -34 9 -7 35 19 45 46 8 22 7 22 -26 -12z"/>
<path d="M1417 603 c-3 -5 6 -9 21 -10 15 0 43 -3 62 -7 19 -3 28 -4 20 0 -8 3 -22 8 -30 11 -28 11 -68 14 -73 6z"/>
<path d="M1270 591 c0 -10 58 -13 64 -3 2 4 -11 8 -30 9 -19 0 -34 -2 -34 -6z"/>
<path d="M1985 574 c0 -13 3 -24 8 -24 4 0 7 9 7 19 0 11 -3 22 -7 24 -5 3 -8 -6 -8 -19z"/>
<path d="M905 580 c3 -5 8 -10 11 -10 2 0 4 5 4 10 0 6 -5 10 -11 10 -5 0 -7 -4 -4 -10z"/>
<path d="M946 581 c-4 -5 3 -7 14 -4 23 6 26 13 6 13 -8 0 -17 -4 -20 -9z"/>
<path d="M1355 579 c-11 -17 0 -20 21 -4 17 13 17 14 2 15 -9 0 -20 -5 -23 -11z"/>
<path d="M1716 565 c-3 -8 -1 -15 4 -15 13 0 22 18 11 24 -5 3 -11 -1 -15 -9z"/>
<path d="M376 554 c-9 -23 -2 -28 13 -10 7 8 8 17 3 20 -6 3 -13 -1 -16 -10z"/>
<path d="M1898 553 c7 -3 16 -2 19 1 4 3 -2 6 -13 5 -11 0 -14 -3 -6 -6z"/>
<path d="M43 495 c0 -8 4 -12 9 -9 5 3 6 10 3 15 -9 13 -12 11 -12 -6z"/>
<path d="M0 471 c0 -5 15 -13 33 -18 17 -5 31 -14 30 -20 -1 -5 10 -10 25 -10 15 -1 37 -4 50 -7 12 -2 22 0 22 6 0 5 -7 7 -16 4 -8 -3 -12 -2 -9 4 4 6 -2 7 -12 4 -14 -5 -15 -4 -4 4 10 7 21 7 33 1 10 -6 24 -7 31 -3 8 5 7 2 -2 -9 -8 -11 -9 -17 -3 -17 6 0 16 9 22 21 10 18 13 19 23 6 10 -12 14 -12 28 3 16 17 15 18 -17 17 -19 -1 -34 -4 -34 -8 0 -9 -41 1 -57 14 -7 5 -13 5 -13 1 0 -5 -10 -15 -22 -23 -18 -11 -23 -11 -32 0 -13 16 -76 41 -76 30z"/>
<path d="M332 464 c-12 -8 -27 -12 -32 -9 -6 3 -10 1 -10 -6 0 -7 8 -9 21 -6 17 4 19 3 10 -6 -18 -18 -13 -28 8 -15 11 7 17 16 14 21 -3 5 1 13 8 18 7 4 11 10 8 13 -3 3 -15 -1 -27 -10z"/>
<path d="M380 465 c-7 -8 -8 -15 -2 -15 5 0 15 7 22 15 7 8 8 15 2 15 -5 0 -15 -7 -22 -15z"/>
<path d="M554 468 c10 -5 23 -5 34 1 14 8 10 10 -16 9 -26 -1 -30 -3 -18 -10z"/>
<path d="M1955 470 c-4 -6 -28 -8 -57 -6 -47 5 -49 4 -30 -10 12 -8 28 -11 39 -7 16 6 17 5 3 -12 -14 -17 -14 -18 7 -7 30 17 35 15 23 -7 -7 -14 -6 -21 3 -24 7 -3 5 -6 -5 -6 -24 -1 -30 -17 -7 -18 18 -2 23 7 20 34 -1 7 7 9 19 6 11 -3 17 -10 13 -16 -3 -6 -1 -7 5 -3 20 12 14 35 -7 29 -22 -6 -36 24 -20 43 6 8 9 14 6 14 -3 0 -9 -5 -12 -10z"/>
<path d="M413 448 c-9 -10 -13 -21 -9 -25 4 -4 10 -3 14 3 4 6 17 14 29 18 18 6 22 4 17 -7 -3 -8 -1 -18 5 -22 6 -3 9 0 5 8 -8 23 10 28 24 7 9 -14 8 -21 -3 -30 -17 -15 -20 -30 -4 -30 5 0 7 5 4 10 -3 6 -2 10 4 10 15 0 26 -23 13 -28 -8 -2 -7 -8 4 -19 8 -8 18 -12 22 -8 4 4 2 10 -5 12 -7 2 -9 11 -6 20 3 8 0 19 -8 23 -11 7 -10 10 4 16 9 3 17 12 17 20 0 35 -100 52 -127 22z m112 -18 c3 -5 2 -10 -4 -10 -5 0 -13 5 -16 10 -3 6 -2 10 4 10 5 0 13 -4 16 -10z"/>
<path d="M660 462 c0 -5 -13 -7 -30 -4 -17 2 -30 0 -30 -6 0 -6 -3 -17 -6 -26 -7 -18 37 -40 47 -24 4 6 21 3 43 -6 32 -13 36 -13 36 0 0 8 -5 12 -10 9 -6 -4 -17 -2 -25 5 -7 6 -24 10 -37 8 -12 -2 -24 1 -26 7 -3 15 161 17 170 2 5 -8 10 -9 16 -2 12 17 73 10 84 -9 9 -16 11 -16 24 1 13 17 13 17 14 0 0 -13 5 -17 19 -12 13 4 24 -1 34 -15 10 -14 17 -18 22 -10 3 6 14 9 23 8 9 -2 17 2 17 7 1 27 15 33 50 22 20 -6 31 -14 24 -17 -7 -5 -5 -9 5 -13 10 -4 16 -1 16 7 0 7 7 13 15 13 11 0 12 -4 4 -14 -9 -10 -8 -13 4 -13 16 0 30 26 22 41 -3 4 -16 5 -28 0 -26 -9 -57 -4 -57 10 0 6 13 8 30 5 16 -2 32 0 36 5 3 5 -11 9 -31 9 -20 0 -45 5 -56 10 -24 14 -26 -5 -1 -19 28 -17 7 -13 -48 9 -46 18 -53 19 -73 5 -22 -15 -19 -18 18 -16 14 0 16 -1 5 -6 -8 -3 -21 -11 -29 -17 -11 -8 -13 -8 -8 1 9 14 -58 36 -110 37 -18 0 -33 3 -33 7 0 8 -75 3 -90 -6 -23 -14 -49 -14 -43 1 3 8 2 14 -1 14 -3 0 -6 -4 -6 -8z m379 -31 c12 -8 10 -12 -11 -22 -15 -6 -34 -9 -44 -5 -16 6 -16 8 2 21 22 17 34 18 53 6z"/>
<path d="M880 460 c8 -5 20 -10 25 -10 6 0 3 5 -5 10 -8 5 -19 10 -25 10 -5 0 -3 -5 5 -10z"/>
<path d="M920 460 c0 -5 7 -7 15 -4 8 4 15 8 15 10 0 2 -7 4 -15 4 -8 0 -15 -4 -15 -10z"/>
<path d="M1235 460 c-11 -4 -25 -5 -31 -3 -7 2 -15 -1 -19 -8 -5 -7 -3 -10 6 -7 8 3 22 1 32 -4 12 -6 23 -5 33 3 10 8 14 8 14 0 0 -14 -44 -43 -60 -39 -7 2 -14 -2 -16 -7 -8 -22 42 -10 67 15 31 32 56 43 64 29 4 -5 12 -9 18 -8 7 1 21 1 32 0 18 -2 18 -3 -5 -16 -16 -9 -27 -10 -31 -3 -4 7 -9 6 -13 -1 -5 -8 -13 -8 -26 -1 -11 6 -21 6 -25 1 -7 -12 12 -24 24 -17 5 4 11 1 13 -5 3 -9 9 -9 26 0 14 8 22 8 22 1 0 -5 6 -10 14 -10 8 0 17 -6 19 -12 4 -10 6 -9 6 1 1 11 4 11 18 0 11 -10 14 -10 9 -1 -4 6 -2 12 3 12 6 0 11 -7 11 -16 0 -8 5 -12 10 -9 18 11 11 31 -12 32 -11 1 -24 7 -28 14 -6 8 -9 8 -14 0 -4 -6 -12 -11 -18 -11 -6 0 -4 8 5 18 13 15 14 20 2 36 -9 11 -20 16 -30 12 -9 -3 -22 -3 -28 1 -16 10 -68 11 -92 3z"/>
<path d="M1390 465 c0 -3 12 -10 26 -15 17 -7 24 -15 20 -25 -7 -18 12 -31 26 -17 17 17 -15 57 -46 60 -14 1 -26 -1 -26 -3z"/>
<path d="M1585 461 c-3 -3 -18 -5 -33 -6 l-27 0 0 -82 c-1 -63 3 -83 13 -83 7 0 10 5 7 10 -3 6 0 11 7 12 21 2 32 5 51 11 9 4 24 9 33 12 8 3 12 9 9 15 -4 6 -10 8 -15 5 -4 -3 -10 -2 -13 2 -2 5 -2 2 -1 -4 2 -7 -9 -15 -24 -19 -15 -3 -33 -7 -39 -10 -15 -4 -18 43 -5 64 7 9 13 8 27 -8 18 -20 18 -20 -5 -20 -25 0 -20 -12 6 -16 26 -4 29 27 5 45 l-22 17 21 22 c11 12 28 22 38 22 14 0 12 -4 -7 -19 -14 -11 -19 -21 -13 -25 5 -3 13 2 16 11 6 15 8 15 16 3 6 -9 10 -10 10 -3 0 6 3 18 6 26 4 10 -4 16 -25 19 -17 3 -34 2 -36 -1z m-30 -42 c-9 -17 -19 -29 -22 -26 -2 3 0 14 6 25 6 11 7 22 4 26 -3 3 1 6 11 6 15 0 15 -2 1 -31z"/>
<path d="M1666 446 c-3 -13 -9 -32 -12 -43 -5 -17 -5 -17 9 0 14 17 43 25 33 9 -8 -13 36 -12 48 1 14 16 20 40 7 33 -5 -4 -11 -1 -13 5 -2 7 -18 13 -35 15 -26 3 -32 0 -37 -20z m64 -21 c0 -8 -4 -15 -8 -15 -13 0 -43 36 -36 43 10 10 44 -12 44 -28z"/>
<path d="M1830 451 c0 -12 23 -31 37 -31 21 0 15 14 -12 27 -14 6 -25 8 -25 4z"/>
<path d="M1772 428 c2 -14 -2 -22 -9 -21 -7 2 -10 -3 -7 -10 2 -7 -11 -21 -31 -31 -26 -14 -34 -24 -30 -37 3 -9 1 -20 -5 -24 -21 -13 1 -24 30 -14 19 7 27 15 23 25 -4 12 0 14 23 9 57 -13 58 -13 41 -39 -15 -22 -15 -25 2 -40 10 -9 24 -16 32 -16 8 0 20 -5 27 -12 14 -14 16 0 3 20 -4 8 -14 13 -22 12 -24 -4 -39 0 -39 9 0 5 8 8 18 6 9 -1 11 0 5 2 -21 7 -15 23 10 23 22 0 22 1 -3 13 -14 8 -24 19 -22 26 3 14 -66 13 -86 -2 -9 -7 -16 -7 -24 1 -8 8 -1 16 23 31 35 21 94 24 94 4 0 -6 3 -15 8 -19 4 -4 7 -1 7 7 -1 18 -25 50 -33 43 -3 -3 -11 -3 -17 1 -17 11 8 35 28 27 16 -5 16 -5 0 11 -25 25 -50 22 -46 -5z"/>
<path d="M23 427 c0 -8 6 -14 12 -14 6 0 12 6 12 14 0 7 -6 13 -12 13 -6 0 -12 -6 -12 -13z"/>
<path d="M1195 430 c-4 -6 3 -10 14 -10 25 0 27 6 6 13 -8 4 -17 2 -20 -3z"/>
<path d="M736 421 c-3 -4 6 -6 19 -3 14 2 25 6 25 8 0 8 -39 4 -44 -5z"/>
<path d="M240 410 c-13 -8 -12 -10 3 -10 9 0 17 -5 17 -10 0 -6 14 -19 31 -29 29 -18 30 -19 12 -32 -11 -8 -23 -21 -28 -29 -4 -8 3 -5 16 6 16 14 33 20 52 17 31 -4 35 8 10 28 -16 13 -17 12 -4 -3 7 -10 10 -18 7 -18 -12 0 -76 55 -76 65 0 5 5 4 12 -3 15 -15 54 -16 63 -2 4 6 11 8 16 4 5 -3 7 -10 4 -15 -10 -15 15 -10 31 6 13 13 12 15 -8 20 -31 7 -68 3 -62 -7 4 -7 -27 -5 -46 2 -3 2 -9 2 -14 1 -5 -1 -12 2 -15 8 -4 6 -12 7 -21 1z"/>
<path d="M843 413 c9 -2 23 -2 30 0 6 3 -1 5 -18 5 -16 0 -22 -2 -12 -5z"/>
<path d="M1842 398 c2 -12 10 -23 18 -25 13 -4 13 -3 0 6 -12 9 -13 13 -2 20 11 6 10 9 -3 15 -13 4 -16 1 -13 -16z"/>
<path d="M37 386 c-15 -12 -24 -25 -21 -29 4 -4 17 4 30 18 12 13 24 20 26 14 2 -6 11 -4 23 4 18 14 18 15 -6 15 -14 0 -37 -10 -52 -22z"/>
<path d="M434 394 c3 -7 -2 -15 -11 -18 -9 -4 -14 -9 -11 -11 3 -3 18 1 34 10 16 8 23 15 16 15 -7 0 -11 4 -8 8 3 5 -2 9 -10 9 -8 0 -13 -6 -10 -13z"/>
<path d="M1068 404 c-10 -9 7 -57 20 -60 7 -1 8 0 2 3 -5 2 -10 11 -10 19 0 10 5 12 13 8 9 -6 9 -5 0 8 -7 8 -10 18 -6 21 3 4 2 7 -4 7 -5 0 -12 -3 -15 -6z"/>
<path d="M1880 400 c0 -5 7 -7 15 -4 8 4 15 8 15 10 0 2 -7 4 -15 4 -8 0 -15 -4 -15 -10z"/>
<path d="M170 389 c0 -5 -6 -7 -12 -3 -7 4 -9 3 -5 -1 4 -5 19 -11 34 -13 23 -3 24 -2 10 12 -18 19 -27 20 -27 5z"/>
<path d="M730 389 c0 -5 9 -9 20 -9 11 0 20 2 20 4 0 2 -9 6 -20 9 -11 3 -20 1 -20 -4z"/>
<path d="M867 385 c-15 -11 -16 -14 -2 -25 9 -7 18 -10 22 -6 3 3 1 6 -6 6 -7 0 -10 4 -6 10 3 5 12 7 20 4 7 -3 22 0 32 6 17 11 17 11 -1 6 -10 -4 -24 -2 -30 3 -7 6 -17 5 -29 -4z"/>
<path d="M113 378 c-23 -11 -31 -28 -13 -28 6 0 10 5 10 10 0 6 7 10 16 10 9 0 12 -5 8 -12 -4 -7 -3 -8 4 -4 8 5 7 39 -2 35 0 0 -11 -5 -23 -11z"/>
<path d="M596 375 c-3 -8 -1 -17 4 -20 5 -3 6 -15 4 -28 -3 -12 -7 -57 -9 -99 -2 -43 -6 -87 -10 -98 -3 -11 -2 -20 2 -20 5 0 7 -16 5 -35 l-4 -35 66 4 c46 3 64 1 60 -6 -5 -7 -2 -8 7 -3 7 5 27 8 44 8 16 -1 23 1 13 4 -9 2 -19 11 -22 19 -3 9 -1 12 4 9 6 -3 10 -2 10 4 0 17 28 1 33 -20 6 -22 27 -26 27 -4 0 19 -54 47 -74 39 -9 -3 -16 -10 -16 -14 0 -4 -8 -10 -17 -14 -10 -3 -24 -9 -32 -12 -9 -4 -11 -2 -7 5 9 14 -9 14 -35 1 -13 -7 -25 -8 -37 -1 -17 11 -13 13 23 15 11 1 20 8 20 16 1 26 14 38 38 34 l22 -5 -22 12 c-18 10 -26 8 -49 -10 -20 -16 -23 -21 -10 -21 10 0 15 -4 12 -9 -10 -15 -42 -1 -43 20 -1 13 5 19 18 19 10 0 19 4 19 10 0 5 -7 7 -15 4 -10 -4 -15 0 -15 14 0 14 14 28 40 43 22 13 40 30 40 38 0 12 -6 9 -21 -9 -14 -17 -22 -21 -26 -12 -2 6 -9 9 -15 6 -6 -4 -5 -10 3 -15 11 -7 11 -9 1 -9 -19 0 -26 28 -12 45 14 17 35 21 25 5 -4 -6 1 -7 11 -3 15 5 15 7 0 15 -9 5 -21 6 -27 2 -8 -4 -9 1 -4 17 5 19 4 21 -4 9 -14 -19 -14 -11 0 29 6 17 16 31 22 32 7 1 1 5 -13 9 -23 7 -23 8 9 9 40 1 38 6 -6 14 -22 4 -33 2 -37 -8z"/>
<path d="M795 380 c18 -8 18 -9 -5 -9 -26 -1 -58 -17 -50 -25 3 -2 22 1 42 7 46 15 59 37 20 36 -24 0 -25 -1 -7 -9z"/>
<path d="M1625 380 c3 -5 14 -10 23 -10 15 0 15 2 2 10 -20 13 -33 13 -25 0z"/>
<path d="M1670 380 c0 -5 5 -10 10 -10 6 0 10 5 10 10 0 6 -4 10 -10 10 -5 0 -10 -4 -10 -10z"/>
<path d="M960 370 c-9 -6 -10 -10 -3 -10 6 0 15 5 18 10 8 12 4 12 -15 0z"/>
<path d="M1965 370 c3 -5 10 -10 16 -10 5 0 9 5 9 10 0 6 -7 10 -16 10 -8 0 -12 -4 -9 -10z"/>
<path d="M454 361 c4 -6 2 -11 -3 -11 -6 0 -11 -5 -11 -12 0 -9 3 -9 12 0 17 17 33 15 18 -3 -7 -8 -10 -15 -7 -15 2 0 10 6 16 14 10 12 8 17 -10 26 -14 8 -19 8 -15 1z"/>
<path d="M687 363 c-15 -14 -6 -25 10 -12 15 13 16 12 11 -9 -4 -12 -2 -20 3 -16 14 8 11 44 -4 44 -8 0 -17 -3 -20 -7z"/>
<path d="M1180 358 c0 -5 3 -8 8 -9 4 0 15 -2 25 -4 9 -2 15 1 12 5 -3 5 3 10 12 13 10 2 1 4 -19 3 -21 -1 -38 -4 -38 -8z"/>
<path d="M1288 363 c6 -2 18 -2 25 0 6 3 1 5 -13 5 -14 0 -19 -2 -12 -5z"/>
<path d="M210 349 c-8 -5 -13 -9 -10 -9 3 -1 22 -3 43 -6 24 -4 37 -2 37 6 0 6 -8 10 -17 8 -10 -1 -23 0 -28 4 -6 4 -17 3 -25 -3z"/>
<path d="M990 351 c0 -6 -15 -7 -34 -4 -40 6 -80 -10 -52 -20 11 -5 15 -3 10 5 -5 8 3 9 30 5 20 -3 44 -3 52 0 16 6 19 23 4 23 -5 0 -10 -4 -10 -9z"/>
<path d="M66 334 c-4 -9 -3 -20 0 -23 4 -3 9 0 11 7 3 6 9 10 14 7 5 -4 17 -1 26 5 17 11 17 11 -1 6 -10 -4 -24 -2 -31 4 -9 8 -14 6 -19 -6z"/>
<path d="M785 340 c3 -5 8 -10 11 -10 2 0 4 5 4 10 0 6 -5 10 -11 10 -5 0 -7 -4 -4 -10z"/>
<path d="M1153 337 c5 -13 0 -20 -16 -26 -20 -8 -20 -10 -4 -16 10 -4 16 -13 13 -20 -3 -8 4 -11 21 -9 36 4 40 12 9 20 -30 7 -32 12 -12 28 13 9 13 13 -2 26 -14 13 -15 12 -9 -3z"/>
<path d="M1346 340 c-27 -9 -7 -18 24 -10 18 4 21 8 10 12 -8 3 -24 2 -34 -2z"/>
<path d="M1422 341 c2 -19 -4 -24 -12 -11 -8 13 -10 12 -10 -4 0 -13 -5 -17 -20 -13 -11 3 -18 1 -15 -4 9 -13 54 -7 60 9 3 8 12 12 19 9 8 -3 17 0 19 7 4 9 -3 14 -18 14 -13 0 -24 -3 -23 -7z"/>
<path d="M1975 340 c3 -5 11 -10 16 -10 6 0 7 5 4 10 -3 6 -11 10 -16 10 -6 0 -7 -4 -4 -10z"/>
<path d="M840 336 c0 -2 9 -6 20 -9 11 -3 18 -1 14 4 -5 9 -34 13 -34 5z"/>
<path d="M1015 330 c-4 -7 -21 -10 -37 -8 -16 3 -31 1 -34 -4 -3 -4 8 -8 23 -8 16 0 38 -7 50 -15 19 -13 22 -13 27 1 3 9 12 14 19 11 8 -3 14 0 14 7 0 7 -5 13 -11 13 -6 0 -18 4 -27 7 -10 4 -20 2 -24 -4z m30 -20 c-3 -5 -10 -10 -16 -10 -5 0 -9 5 -9 10 0 6 7 10 16 10 8 0 12 -4 9 -10z"/>
<path d="M1247 333 c-9 -8 43 -34 54 -27 17 10 9 25 -11 19 -11 -4 -20 -2 -20 4 0 12 -13 15 -23 4z"/>
<path d="M640 320 c-9 -6 -10 -10 -3 -10 6 0 15 5 18 10 8 12 4 12 -15 0z"/>
<path d="M737 308 c-13 -13 -22 -17 -29 -10 -11 11 -48 4 -48 -9 0 -10 41 -39 55 -39 5 1 -2 8 -17 16 -16 8 -28 17 -28 20 0 7 64 -1 80 -11 12 -6 13 -5 3 5 -10 11 -9 17 4 32 9 10 12 18 7 17 -5 0 -17 -10 -27 -21z"/>
<path d="M1095 311 c-3 -12 -12 -21 -20 -21 -7 0 -16 -7 -19 -16 -3 -8 -10 -12 -16 -9 -15 9 -12 -4 4 -21 12 -11 20 -12 43 -3 16 7 23 13 15 16 -7 3 -19 -1 -27 -7 -12 -10 -15 -9 -15 4 0 9 4 16 10 16 12 0 45 49 37 56 -3 3 -8 -4 -12 -15z"/>
<path d="M1208 323 c7 -3 16 -2 19 1 4 3 -2 6 -13 5 -11 0 -14 -3 -6 -6z"/>
<path d="M1661 322 c-1 -8 -6 -10 -13 -6 -10 5 -10 4 -1 -6 15 -16 28 -8 20 12 -4 11 -6 11 -6 0z"/>
<path d="M1850 320 c0 -5 7 -7 15 -4 20 8 35 -4 29 -21 -4 -8 -10 -12 -15 -9 -5 3 -9 -3 -9 -12 0 -14 6 -12 30 11 17 16 30 31 30 34 0 3 -18 7 -40 8 -22 2 -40 -2 -40 -7z"/>
<path d="M410 310 c0 -5 5 -10 11 -10 5 0 7 5 4 10 -3 6 -8 10 -11 10 -2 0 -4 -4 -4 -10z"/>
<path d="M508 313 c-21 -5 -23 -14 -6 -31 20 -20 18 -42 -5 -43 -19 0 -19 -2 5 -10 17 -7 25 -15 21 -25 -3 -8 -1 -14 3 -14 5 0 9 29 9 65 0 36 -2 64 -5 64 -3 -1 -13 -3 -22 -6z m12 -23 c0 -5 -2 -10 -4 -10 -3 0 -8 5 -11 10 -3 6 -1 10 4 10 6 0 11 -4 11 -10z"/>
<path d="M805 312 c-25 -18 -36 -40 -24 -48 7 -4 9 -3 5 4 -7 12 28 27 43 18 7 -5 21 14 21 30 0 7 -34 4 -45 -4z"/>
<path d="M130 300 l-25 -8 25 -1 c14 0 32 4 40 9 13 9 13 10 0 9 -8 -1 -26 -5 -40 -9z"/>
<path d="M325 300 c-3 -5 -1 -10 4 -10 6 0 11 5 11 10 0 6 -2 10 -4 10 -3 0 -8 -4 -11 -10z"/>
<path d="M466 296 c4 -12 0 -16 -17 -17 -22 0 -22 -1 -5 -8 18 -7 18 -8 2 -14 -24 -10 -48 -9 -42 1 3 5 -15 3 -41 -3 -25 -6 -49 -19 -55 -28 -6 -11 -5 -17 2 -17 5 0 10 7 10 15 0 13 12 15 62 13 42 -2 63 -7 66 -17 3 -10 -1 -12 -17 -8 -11 3 -19 1 -16 -4 3 -4 -7 -11 -22 -15 -45 -10 -50 -12 -21 -13 15 -1 43 8 62 18 19 11 36 19 38 18 2 -1 -5 4 -14 12 -17 13 -17 14 -1 27 22 17 37 18 27 2 -4 -7 -3 -8 4 -4 9 5 9 13 2 26 -13 24 -32 36 -24 16z"/>
<path d="M870 290 c-13 -11 -19 -20 -14 -20 13 1 61 40 48 40 -6 0 -21 -9 -34 -20z"/>
<path d="M1226 299 c2 -4 -2 -9 -8 -12 -7 -3 6 -4 29 -4 47 1 49 12 4 19 -17 2 -28 1 -25 -3z"/>
<path d="M1435 300 c-3 -5 1 -10 10 -10 9 0 13 5 10 10 -3 6 -8 10 -10 10 -2 0 -7 -4 -10 -10z"/>
<path d="M1940 295 l-25 -15 33 2 c36 3 70 28 36 28 -11 -1 -30 -7 -44 -15z"/>
<path d="M38 293 c-10 -2 -18 -8 -18 -13 0 -5 7 -7 15 -4 11 5 14 1 9 -12 -4 -14 -3 -16 4 -5 8 11 10 11 14 0 3 -9 6 -8 11 4 4 11 1 17 -9 17 -8 0 -12 5 -9 10 3 6 5 9 3 9 -2 -1 -11 -3 -20 -6z"/>
<path d="M397 289 c7 -7 15 -10 18 -7 3 3 -2 9 -12 12 -14 6 -15 5 -6 -5z"/>
<path d="M916 291 c-3 -5 2 -15 12 -22 15 -12 16 -12 5 2 -7 9 -10 19 -6 22 3 4 4 7 0 7 -3 0 -8 -4 -11 -9z"/>
<path d="M1564 288 c-4 -7 -4 -10 1 -6 4 4 15 2 23 -5 12 -10 14 -9 11 2 -7 20 -26 25 -35 9z"/>
<path d="M1760 290 l-25 -8 27 -1 c15 -1 30 4 33 9 7 11 0 11 -35 0z"/>
<path d="M977 279 c7 -7 15 -10 18 -7 3 3 -2 9 -12 12 -14 6 -15 5 -6 -5z"/>
<path d="M1106 281 c-3 -5 1 -11 9 -14 9 -4 12 -1 8 9 -6 16 -10 17 -17 5z"/>
<path d="M1620 279 c0 -5 5 -7 10 -4 6 3 10 8 10 11 0 2 -4 4 -10 4 -5 0 -10 -5 -10 -11z"/>
<path d="M151 265 c-13 -7 -32 -12 -42 -10 -25 5 -24 -8 3 -31 21 -19 21 -19 14 1 -4 11 -4 16 0 12 4 -4 15 0 25 9 10 9 23 13 29 9 15 -9 2 -25 -21 -25 -10 0 -19 -4 -19 -9 0 -4 12 -8 28 -7 15 0 27 -3 27 -9 0 -5 -17 -10 -37 -10 -38 0 -50 -9 -25 -18 9 -4 9 -6 -1 -6 -16 -1 -48 -31 -34 -31 15 0 64 27 60 33 -2 3 1 9 6 14 5 4 6 3 3 -3 -4 -7 2 -14 14 -17 12 -3 18 -3 15 0 -10 10 25 43 46 43 21 0 22 -4 7 -31 -5 -11 -14 -17 -20 -13 -12 7 -41 -15 -33 -27 3 -5 12 -9 20 -9 9 0 12 5 8 12 -5 7 -2 9 8 6 11 -5 22 6 37 35 13 23 19 39 15 35 -4 -4 -12 -1 -18 6 -6 8 -22 17 -36 21 -23 6 -23 6 -7 -7 17 -13 17 -14 -2 -15 -14 -1 -21 6 -26 28 -7 32 -9 33 -44 14z"/>
<path d="M290 270 c12 -9 10 -11 -12 -7 -16 2 -28 0 -28 -4 0 -5 14 -9 31 -9 31 0 37 20 8 28 -11 3 -11 1 1 -8z"/>
<path d="M1444 265 c-4 -8 -12 -15 -18 -15 -7 0 -13 -7 -13 -15 0 -12 3 -12 16 -2 12 9 13 9 7 0 -5 -9 -1 -13 11 -13 12 0 19 7 19 20 0 11 -5 20 -11 20 -5 0 -3 5 5 10 10 7 11 10 2 10 -7 0 -15 -7 -18 -15z"/>
<path d="M1527 266 c-3 -8 -1 -16 5 -18 7 -3 8 -10 3 -18 -12 -19 -13 -100 -2 -100 5 0 5 -6 -1 -13 -6 -7 -9 -25 -6 -40 2 -16 0 -27 -6 -27 -6 0 -8 -4 -5 -10 8 -13 38 -13 70 2 30 13 34 28 5 21 -12 -3 -20 0 -20 6 0 7 5 9 12 5 7 -4 8 -3 4 5 -11 17 -29 2 -23 -20 6 -22 -8 -26 -16 -5 -3 8 0 22 7 31 10 14 17 15 33 7 21 -12 33 -7 33 12 0 6 -5 4 -10 -4 -6 -10 -10 -11 -10 -2 0 14 -36 16 -45 2 -3 -5 -11 -10 -17 -10 -6 0 -3 11 6 25 18 27 21 55 6 55 -5 0 -10 5 -10 10 0 18 22 10 27 -10 3 -13 13 -20 27 -19 17 1 17 2 4 6 -10 2 -18 9 -18 14 0 5 12 6 26 3 20 -5 25 -4 19 5 -4 7 -18 11 -31 8 -29 -5 -30 3 -4 36 l20 26 -24 -5 c-18 -3 -26 1 -31 16 -7 23 -21 26 -28 6z m49 -42 c-9 -6 -13 -14 -9 -17 3 -4 2 -7 -4 -7 -11 0 -25 25 -18 32 2 2 14 4 25 4 18 0 19 -2 6 -12z"/>
<path d="M898 258 c8 -8 6 -15 -9 -29 -11 -10 -16 -20 -10 -23 5 -4 16 3 25 15 15 22 12 49 -7 49 -8 0 -7 -4 1 -12z"/>
<path d="M1280 259 c0 -5 5 -7 10 -4 6 3 10 8 10 11 0 2 -4 4 -10 4 -5 0 -10 -5 -10 -11z"/>
<path d="M1306 255 c-4 -13 -2 -14 14 -5 23 13 26 20 6 20 -8 0 -16 -7 -20 -15z"/>
<path d="M1350 259 c0 -5 5 -7 10 -4 6 3 10 8 10 11 0 2 -4 4 -10 4 -5 0 -10 -5 -10 -11z"/>
<path d="M1698 263 c6 -2 18 -2 25 0 6 3 1 5 -13 5 -14 0 -19 -2 -12 -5z"/>
<path d="M1763 257 c5 -12 1 -17 -13 -17 -11 0 -20 -4 -20 -9 0 -4 16 -6 36 -4 27 3 34 1 28 -9 -4 -7 -4 -10 1 -6 5 5 14 -1 22 -12 17 -24 35 -26 26 -3 -4 11 -3 14 5 9 7 -4 12 -2 12 3 0 14 -17 14 -25 2 -3 -6 -22 7 -42 27 -20 20 -34 29 -30 19z"/>
<path d="M1912 258 c-30 -30 -6 -37 28 -8 21 19 22 20 4 20 -11 0 -25 -5 -32 -12z"/>
<path d="M1985 260 c3 -5 8 -10 11 -10 2 0 4 5 4 10 0 6 -5 10 -11 10 -5 0 -7 -4 -4 -10z"/>
<path d="M750 256 c0 -2 8 -10 18 -17 15 -13 16 -12 3 4 -13 16 -21 21 -21 13z"/>
<path d="M846 252 c-3 -5 -17 -8 -30 -7 -19 2 -23 -1 -19 -12 4 -9 -2 -22 -12 -29 -18 -13 -18 -14 3 -14 12 0 22 -4 22 -10 0 -5 4 -10 8 -10 5 0 9 7 9 15 0 8 -6 15 -13 15 -7 0 -10 8 -7 20 3 11 10 20 15 20 5 0 7 -4 4 -9 -3 -5 1 -11 9 -15 8 -3 14 0 12 7 -1 7 7 11 18 9 11 -2 16 1 10 5 -5 5 -13 12 -16 16 -4 5 -10 4 -13 -1z"/>
<path d="M986 239 c14 -15 19 -17 26 -7 13 21 10 26 -17 26 -25 0 -25 -1 -9 -19z"/>
<path d="M1234 245 c-5 -11 -10 -12 -26 -4 -11 6 -22 8 -26 5 -3 -3 0 -6 6 -6 6 0 17 -7 26 -15 13 -13 15 -13 21 5 4 11 11 18 16 15 5 -4 9 -1 9 4 0 16 -20 13 -26 -4z"/>
<path d="M1138 228 c5 -21 -1 -22 -29 -8 -15 8 -23 7 -35 -5 -12 -11 -12 -15 -2 -15 10 0 9 -3 -2 -10 -8 -5 -11 -10 -7 -10 4 0 18 7 32 16 22 14 24 14 35 -5 9 -17 8 -20 -5 -15 -8 4 -15 1 -15 -6 0 -6 -4 -8 -10 -5 -5 3 -17 2 -26 -3 -14 -8 -12 -10 10 -14 14 -3 26 -2 26 3 0 4 16 11 35 15 19 3 35 10 35 15 0 5 -6 6 -14 3 -8 -3 -17 0 -21 6 -4 7 2 14 14 17 22 6 25 11 13 29 -12 19 -40 13 -34 -8z"/>
<path d="M1683 238 c1 -8 -8 -13 -20 -12 -13 0 -23 -3 -23 -7 0 -12 38 -21 52 -13 8 5 7 0 -2 -11 -9 -11 -10 -16 -2 -11 6 4 12 3 12 -2 0 -5 7 -9 15 -9 19 0 19 5 -5 45 -20 33 -32 41 -27 20z"/>
<path d="M1964 241 c6 -9 -30 -24 -51 -22 -7 1 -13 -4 -13 -10 0 -7 3 -9 7 -6 3 4 12 2 20 -4 10 -9 13 -8 13 1 0 8 8 10 24 6 12 -3 26 -3 29 0 8 9 -11 44 -24 44 -6 0 -8 -4 -5 -9z"/>
<path d="M17 228 c6 -10 35 -10 51 0 8 5 -1 8 -22 8 -19 -1 -32 -4 -29 -8z"/>
<path d="M278 233 c7 -3 16 -2 19 1 4 3 -2 6 -13 5 -11 0 -14 -3 -6 -6z"/>
<path d="M1270 230 c-9 -6 -10 -10 -3 -10 6 0 15 5 18 10 8 12 4 12 -15 0z"/>
<path d="M730 219 c0 -5 -4 -8 -9 -5 -5 4 -17 3 -26 0 -14 -6 -13 -8 5 -21 19 -14 19 -40 -1 -28 -5 3 -6 -1 -2 -11 5 -14 8 -14 23 6 11 15 22 20 30 15 9 -5 11 -4 6 3 -4 7 -16 12 -26 12 -10 0 -22 5 -26 12 -5 7 -2 9 9 5 8 -3 21 1 27 9 9 10 9 14 1 14 -6 0 -11 -5 -11 -11z"/>
<path d="M1370 197 l-23 -32 29 27 c15 15 26 30 23 33 -3 2 -16 -10 -29 -28z"/>
<path d="M85 210 c-3 -5 1 -10 9 -10 9 0 16 5 16 10 0 6 -4 10 -9 10 -6 0 -13 -4 -16 -10z"/>
<path d="M491 204 c0 -11 3 -14 6 -6 3 7 2 16 -1 19 -3 4 -6 -2 -5 -13z"/>
<path d="M946 204 c-12 -12 -16 -12 -16 -2 -1 9 -4 9 -13 -3 -7 -9 -17 -14 -24 -12 -7 3 -10 -4 -6 -19 4 -22 4 -22 -11 -4 -9 11 -16 23 -16 28 0 4 -4 8 -9 8 -6 0 -9 -9 -8 -19 0 -11 4 -18 8 -16 3 3 14 -4 24 -15 10 -11 13 -20 7 -20 -6 0 -9 -6 -6 -14 3 -8 1 -17 -5 -21 -6 -3 -11 -1 -11 4 0 6 -4 11 -9 11 -6 0 -9 -8 -8 -19 1 -20 29 -18 47 4 6 8 19 11 28 8 14 -4 15 -3 2 5 -8 6 -18 8 -22 6 -4 -3 -8 0 -8 5 0 6 4 11 10 11 5 0 7 7 4 15 -5 11 -1 14 12 9 14 -4 16 -3 5 4 -14 10 -6 36 9 27 4 -3 13 2 20 10 16 19 30 10 30 -18 0 -17 -2 -19 -10 -7 -5 8 -12 11 -15 8 -10 -10 4 -28 21 -28 8 0 14 5 14 12 0 7 7 5 18 -5 17 -15 18 -15 20 8 1 14 -3 25 -8 25 -5 0 -6 -8 -3 -17 6 -16 5 -16 -10 -4 -12 10 -14 17 -7 26 8 9 6 14 -6 19 -24 9 -31 8 -48 -10z"/>
<path d="M1196 211 c-4 -7 -5 -15 -2 -18 9 -9 19 4 14 18 -4 11 -6 11 -12 0z"/>
<path d="M1285 204 c-39 -20 -57 -37 -30 -29 19 6 19 6 3 -8 -10 -8 -18 -18 -18 -23 0 -4 5 -3 12 4 9 9 16 8 32 -6 20 -16 20 -16 7 1 -12 15 -11 17 5 18 16 0 15 2 -4 10 -26 10 -21 30 7 24 10 -2 18 3 18 11 0 8 -1 14 -1 14 -1 0 -14 -7 -31 -16z"/>
<path d="M1337 203 c3 -7 9 -10 14 -7 14 8 11 21 -5 21 -8 0 -12 -6 -9 -14z"/>
<path d="M44 177 c0 -28 4 -35 17 -34 11 1 15 5 10 12 -5 5 -7 18 -6 28 2 9 0 15 -5 12 -5 -3 -10 0 -12 6 -2 7 -4 -4 -4 -24z"/>
<path d="M1436 195 c-3 -8 -1 -15 4 -15 6 0 10 -7 10 -16 0 -12 -6 -15 -26 -10 -17 5 -23 3 -19 -4 3 -5 12 -10 20 -10 8 0 16 -4 19 -9 10 -15 -5 -43 -20 -37 -8 3 -11 0 -7 -9 3 -8 9 -12 14 -9 5 3 9 1 9 -5 0 -15 -23 -19 -44 -9 -12 7 -16 7 -12 0 4 -7 -18 -10 -64 -10 -39 1 -76 -4 -81 -9 -7 -7 23 -10 90 -9 74 1 105 6 116 16 18 19 30 144 12 133 -7 -4 -6 0 2 10 11 15 11 17 -2 17 -8 0 -17 -7 -21 -15z"/>
<path d="M292 187 c-15 -20 -22 -47 -12 -47 5 0 12 11 16 24 4 17 11 22 25 19 10 -3 19 -1 19 4 0 13 -37 13 -48 0z"/>
<path d="M1790 192 c0 -13 -40 -57 -41 -46 -1 5 -1 12 0 16 0 4 -6 5 -15 1 -12 -4 -13 -8 -3 -13 17 -11 -25 -32 -48 -24 -16 6 -17 5 -2 -10 11 -12 22 -14 38 -8 12 4 22 11 22 15 -1 4 1 6 2 5 2 -2 12 3 21 11 14 12 19 12 26 2 5 -8 10 -9 14 -3 3 6 0 13 -6 15 -8 3 -6 6 5 6 21 1 22 8 2 27 -8 9 -15 11 -15 6z"/>
<path d="M438 183 c-30 -8 -20 -18 20 -19 20 -1 26 1 13 3 -19 4 -21 7 -10 14 15 9 6 10 -23 2z"/>
<path d="M1847 168 c-10 -11 -17 -20 -15 -21 2 -1 13 -8 26 -15 19 -11 22 -10 22 6 0 10 6 24 13 32 6 8 3 7 -9 -3 -28 -23 -41 -22 -19 3 10 11 14 20 9 19 -5 0 -17 -10 -27 -21z"/>
<path d="M1975 180 c-4 -6 -11 -7 -17 -4 -7 4 -8 2 -4 -4 4 -7 3 -12 -3 -12 -5 0 -13 5 -16 10 -3 6 -12 10 -18 10 -7 0 -4 -5 5 -11 10 -5 15 -16 12 -24 -4 -10 0 -15 15 -15 12 0 21 -4 21 -10 0 -5 -10 -10 -22 -10 -12 0 -18 -3 -15 -7 10 -9 58 -10 63 -1 3 4 0 8 -7 8 -8 0 -8 4 -1 13 8 9 8 17 0 27 -8 12 -9 11 -4 -4 5 -14 2 -17 -10 -12 -8 3 -18 6 -21 6 -3 0 6 11 21 25 15 14 23 25 17 25 -5 0 -13 -5 -16 -10z"/>
<path d="M0 164 c0 -8 5 -12 10 -9 6 3 10 10 10 16 0 5 -4 9 -10 9 -5 0 -10 -7 -10 -16z"/>
<path d="M400 158 c0 -12 7 -18 23 -17 15 0 17 2 7 6 -8 3 -18 11 -22 17 -5 7 -8 4 -8 -6z"/>
<path d="M530 159 c0 -5 -4 -7 -10 -4 -5 3 -10 1 -10 -4 0 -6 7 -11 15 -11 8 0 15 7 15 15 0 8 -2 15 -5 15 -3 0 -5 -5 -5 -11z"/>
<path d="M655 160 c-3 -5 -2 -10 4 -10 5 0 13 5 16 10 3 6 2 10 -4 10 -5 0 -13 -4 -16 -10z"/>
<path d="M770 160 c0 -5 7 -10 16 -10 8 0 12 5 9 10 -3 6 -10 10 -16 10 -5 0 -9 -4 -9 -10z"/>
<path d="M1183 156 c-10 -11 -9 -15 2 -20 10 -4 15 1 15 14 0 23 -1 24 -17 6z"/>
<path d="M1367 164 c-3 -3 -3 -13 0 -22 5 -11 2 -14 -10 -9 -9 3 -17 2 -17 -3 0 -18 29 -11 40 9 9 19 0 37 -13 25z"/>
<path d="M304 151 c9 -14 -15 -28 -64 -40 l-45 -11 45 6 c25 3 50 6 57 6 7 1 10 5 8 9 -3 4 2 10 11 13 16 6 11 26 -7 26 -6 0 -8 -4 -5 -9z"/>
<path d="M1320 150 c-8 -5 -10 -10 -5 -10 6 0 17 5 25 10 8 5 11 10 5 10 -5 0 -17 -5 -25 -10z"/>
<path d="M1670 150 c-13 -8 -13 -10 2 -10 9 0 20 5 23 10 8 13 -5 13 -25 0z"/>
<path d="M456 138 c3 -5 10 -6 15 -3 13 9 11 12 -6 12 -8 0 -12 -4 -9 -9z"/>
<path d="M940 142 c0 -7 -4 -10 -10 -7 -5 3 -10 2 -10 -4 0 -5 10 -11 23 -13 12 -2 21 -9 20 -16 -3 -11 10 -16 30 -13 4 1 3 -8 -3 -20 -9 -15 -15 -18 -23 -10 -13 13 -31 15 -23 3 3 -5 -2 -9 -10 -9 -8 0 -13 6 -10 14 4 8 -2 13 -17 12 -12 0 -16 -3 -9 -6 6 -2 12 -9 12 -14 0 -6 -6 -7 -16 -1 -22 13 -54 3 -54 -15 0 -12 3 -13 13 -4 8 6 16 9 19 6 3 -3 77 -7 166 -9 143 -3 164 -2 191 15 17 10 37 16 46 13 8 -4 15 -1 15 5 0 6 -18 10 -44 9 -28 -2 -42 -6 -39 -14 3 -8 -12 -11 -46 -11 -28 0 -48 4 -45 8 3 5 0 9 -5 9 -6 0 -11 -4 -11 -9 0 -12 -73 -12 -91 0 -12 7 -11 9 1 9 10 1 4 10 -15 25 -22 18 -25 25 -13 25 9 0 19 4 22 8 2 4 -8 7 -22 6 -15 0 -30 4 -34 10 -5 7 -8 7 -8 -2z"/>
<path d="M1131 134 c0 -11 3 -14 6 -6 3 7 2 16 -1 19 -3 4 -6 -2 -5 -13z"/>
<path d="M1902 139 c3 -8 -2 -19 -11 -26 -11 -8 -12 -12 -3 -13 6 0 15 -1 19 -2 11 -5 13 41 2 48 -7 4 -10 1 -7 -7z"/>
<path d="M15 131 c-6 -11 13 -26 22 -17 4 3 1 6 -6 6 -7 0 -9 5 -6 10 3 6 4 10 1 10 -3 0 -7 -4 -11 -9z"/>
<path d="M1590 130 c-12 -7 -10 -9 8 -7 12 0 22 5 22 9 0 11 -12 10 -30 -2z"/>
<path d="M107 123 c-4 -3 -7 -11 -7 -17 0 -6 5 -5 12 2 6 6 9 14 7 17 -3 3 -9 2 -12 -2z"/>
<path d="M340 115 c7 -8 20 -15 29 -14 12 0 11 2 -4 8 -19 8 -18 9 5 13 21 4 19 6 -9 7 -29 1 -32 -1 -21 -14z"/>
<path d="M423 114 c0 -8 4 -14 9 -14 4 0 8 5 8 11 0 5 6 7 13 3 6 -4 8 -3 4 1 -13 15 -34 14 -34 -1z"/>
<path d="M475 120 c-3 -6 -3 -20 0 -32 6 -18 4 -20 -13 -15 -12 3 -26 -1 -33 -9 -14 -17 -51 -18 -66 -3 -6 6 -21 8 -34 4 -12 -4 -53 -7 -91 -7 -49 0 -66 -3 -61 -11 4 -7 -1 -6 -10 2 -11 9 -29 11 -51 7 -35 -7 -61 9 -29 17 15 4 15 5 2 6 -9 0 -22 -6 -29 -14 -7 -8 -23 -15 -36 -15 -13 0 -24 -4 -24 -10 0 -14 43 -13 58 2 7 7 12 8 12 2 0 -14 107 -16 132 -3 15 8 19 8 13 -1 -5 -8 0 -11 16 -9 13 2 30 0 37 -4 7 -5 12 -4 12 2 0 6 14 11 30 11 17 0 30 5 30 10 0 6 5 10 11 10 5 0 7 -4 4 -10 -3 -5 -3 -10 2 -11 4 0 17 -2 27 -4 11 -2 33 3 49 11 21 11 32 13 40 5 14 -14 40 -14 32 -1 -4 6 -3 10 2 9 23 -4 31 3 26 22 -4 16 -12 20 -30 16 -20 -4 -24 -1 -20 14 6 21 2 25 -8 9z m45 -42 c0 -4 -7 -8 -15 -8 -8 0 -15 4 -15 8 0 5 7 9 15 9 8 0 15 -4 15 -9z"/>
<path d="M505 120 c3 -5 10 -10 16 -10 5 0 9 5 9 10 0 6 -7 10 -16 10 -8 0 -12 -4 -9 -10z"/>
<path d="M730 122 c0 -5 12 -7 26 -4 15 3 29 -1 34 -8 6 -9 12 -10 26 -1 11 6 17 11 14 12 -34 7 -100 8 -100 1z"/>
<path d="M1021 116 c-9 -11 -8 -15 5 -20 11 -4 15 -2 11 7 -4 11 2 13 24 11 16 -2 29 1 29 6 0 15 -56 12 -69 -4z"/>
<path d="M1155 120 c-8 -13 3 -30 18 -29 9 0 9 2 0 6 -21 8 -15 22 7 16 11 -3 17 -10 13 -17 -4 -6 1 -5 10 3 18 14 23 26 8 16 -5 -3 -12 -1 -16 5 -8 13 -32 13 -40 0z"/>
<path d="M1630 115 c0 -8 2 -15 4 -15 2 0 6 7 10 15 3 8 1 15 -4 15 -6 0 -10 -7 -10 -15z"/>
<path d="M1760 110 c-6 -11 -8 -20 -6 -20 3 0 10 9 16 20 6 11 8 20 6 20 -3 0 -10 -9 -16 -20z"/>
<path d="M55 110 c-3 -5 1 -10 9 -10 8 0 18 5 21 10 3 6 -1 10 -9 10 -8 0 -18 -4 -21 -10z"/>
<path d="M164 99 c-19 -22 -19 -22 4 -10 12 6 22 16 22 21 0 15 -5 12 -26 -11z"/>
<path d="M1295 111 c-3 -5 -2 -12 3 -15 5 -3 9 1 9 9 0 17 -3 19 -12 6z"/>
<path d="M0 96 c0 -7 9 -16 20 -19 25 -6 25 -6 0 16 -15 13 -20 14 -20 3z"/>
<path d="M668 103 c7 -3 16 -2 19 1 4 3 -2 6 -13 5 -11 0 -14 -3 -6 -6z"/>
<path d="M707 103 c-11 -11 -8 -20 7 -20 8 0 12 6 9 14 -6 15 -7 15 -16 6z"/>
<path d="M1083 100 c-32 -13 -29 -17 13 -18 31 -1 34 1 24 13 -7 8 -13 15 -14 14 0 0 -11 -4 -23 -9z"/>
<path d="M1237 99 c7 -7 15 -10 18 -7 3 3 -2 9 -12 12 -14 6 -15 5 -6 -5z"/>
<path d="M1333 99 c11 -7 23 -7 35 0 14 9 11 10 -18 10 -29 0 -32 -1 -17 -10z"/>
<path d="M1803 96 c1 -6 -6 -10 -17 -8 -11 2 -16 -2 -14 -9 2 -7 12 -13 21 -15 9 -1 15 2 11 7 -3 5 -1 9 5 9 5 0 13 -4 16 -10 3 -5 12 -10 18 -10 7 0 4 7 -5 14 -25 19 -22 29 7 24 14 -3 25 -1 25 4 0 5 -15 8 -34 6 -19 -1 -34 -7 -33 -12z"/>
<path d="M272 91 c-11 -6 -10 -10 4 -15 9 -3 19 -4 22 -1 3 3 0 5 -7 5 -7 0 -9 5 -6 10 7 12 4 12 -13 1z"/>
<path d="M300 96 c0 -2 7 -6 15 -10 8 -3 15 -1 15 4 0 6 -7 10 -15 10 -8 0 -15 -2 -15 -4z"/>
<path d="M1725 89 c-4 -6 -13 -8 -20 -5 -8 3 -19 -1 -25 -9 -9 -10 -4 -13 26 -12 20 1 32 3 25 5 -9 3 -9 7 0 18 6 8 9 14 6 14 -3 0 -9 -5 -12 -11z"/>
<path d="M395 79 c-4 -6 -5 -12 -2 -15 2 -3 7 2 10 11 7 17 1 20 -8 4z"/>
<path d="M1647 73 c5 -12 3 -14 -8 -9 -8 4 -5 0 6 -9 20 -17 20 -17 -1 -11 -11 3 -29 0 -39 -8 -18 -13 -15 -13 23 -6 41 7 68 20 44 20 -7 0 -12 9 -12 20 0 11 -4 20 -10 20 -5 0 -6 -7 -3 -17z"/>
<path d="M1135 70 c-3 -6 1 -7 9 -4 18 7 21 14 7 14 -6 0 -13 -4 -16 -10z"/>
<path d="M1970 66 c20 -20 9 -29 -12 -10 -12 10 -18 13 -14 7 5 -10 -8 -12 -56 -10 -35 2 -73 0 -85 -4 -14 -5 -27 -4 -35 5 -11 11 -16 11 -27 -1 -7 -8 -20 -12 -28 -9 -8 3 -22 -1 -31 -10 -15 -15 -15 -16 3 -11 11 4 86 8 166 9 140 3 147 4 145 23 0 13 -8 21 -18 21 -12 0 -14 -4 -8 -10z"/>
<path d="M520 40 c0 -5 -7 -10 -17 -10 -9 0 -14 -3 -10 -6 8 -8 47 5 47 17 0 5 -4 9 -10 9 -5 0 -10 -4 -10 -10z"/>
</g>
</svg>